<?xml version="1.0" encoding="UTF-8"?>
<svg version="1.1" xmlns="http://www.w3.org/2000/svg" width="520" height="528">
<path d="M0 0 C168.96 0 337.92 0 512 0 C512 168.63 512 337.26 512 511 C343.04 511 174.08 511 0 511 C0 342.37 0 173.74 0 0 Z " fill="#FCFDFD" transform="translate(3,8)"/>
<path d="M0 0 C9 6 9 6 12 9 C12.79792969 9.31195313 13.59585937 9.62390625 14.41796875 9.9453125 C17.39490284 11.16130676 19.00923339 12.6412814 21.3125 14.875 C27.55968015 20.67328098 34.37556997 25.62771724 41.22607422 30.68408203 C45.39473499 33.77644118 49.46344663 36.99703365 53.53662109 40.21337891 C59.82795836 45.18079683 66.12624828 50.13852974 72.5 55 C73.87671875 56.051875 73.87671875 56.051875 75.28125 57.125 C77.9835392 59.0876606 77.9835392 59.0876606 81.12890625 60.53125 C83.92874444 61.96354818 85.38316045 63.17470439 87.4375 65.5 C91.70278566 69.9625243 96.48784719 73.4076323 101.48754883 76.984375 C105.6403346 79.96623702 109.55657533 83.05781721 113.2890625 86.5625 C115.38434558 88.32292049 117.65021708 89.59849743 120 91 C121.84887547 92.35402939 123.68115792 93.73088753 125.5 95.125 C130.91030471 99.23121396 136.44560382 103.08256018 142.08984375 106.859375 C145.03489963 109.02567114 147.47040981 111.36768534 150 114 C152.61207144 116.42997992 155.04188642 118.64684916 158.4375 119.8984375 C161.36534944 121.15705571 162.84824628 122.60787954 165 124.9375 C167.8012969 127.95906016 170.45298007 129.92145712 174 132 C175.71078141 133.34592281 177.39708163 134.72333567 179.0625 136.125 C184.89575593 140.95493591 190.91680774 145.49232327 197 150 C199.69038074 151.99615539 202.37789056 153.99608911 205.0625 156 C205.74465576 156.50901855 206.42681152 157.01803711 207.12963867 157.54248047 C212.0097428 161.20505231 216.73332572 165.00262508 221.375 168.96484375 C223.77543524 170.99915644 223.77543524 170.99915644 225.97252607 171.85627574 C228.42042375 172.9995028 230.10900469 174.05790073 232 176 C233.21282326 180.11255796 233.04509367 184.14686074 232.96203613 188.40803528 C232.96887153 189.68229219 232.97570693 190.95654909 232.98274946 192.26941985 C233.00064067 195.80474104 232.96864254 199.3381238 232.92852497 202.87319791 C232.89398732 206.68568743 232.90566742 210.49806701 232.91174316 214.31066895 C232.91593875 220.91557041 232.89083255 227.51983982 232.84584045 234.12458229 C232.78083248 243.67382539 232.75998991 253.22276277 232.74993652 262.77220317 C232.73242601 278.26521953 232.67918285 293.757899 232.60351562 309.25073242 C232.53008707 324.30084575 232.47354975 339.35086712 232.43945312 354.40112305 C232.43730915 355.3382265 232.43516517 356.27532995 232.43295622 357.24083048 C232.41632091 364.56955988 232.40066549 371.89829128 232.38531971 379.22702348 C232.30984544 415.15165821 232.14890148 451.07544963 232 487 C155.44 487 78.88 487 0 487 C0 326.29 0 165.58 0 0 Z " fill="#017BC1" transform="translate(3,32)"/>
<path d="M0 0 C0 160.38 0 320.76 0 486 C-5.28 486 -10.56 486 -16 486 C-16 374.13 -16 262.26 -16 147 C-76.84468456 145.47364406 -76.84468456 145.47364406 -137 151 C-140.99900627 151.67840285 -144.99580339 152.35538502 -149 153 C-149 153.66 -149 154.32 -149 155 C-151.01171875 156.3671875 -151.01171875 156.3671875 -153.6875 157.875 C-160.81112847 162.03712001 -165.70899568 166.73593742 -171 173 C-171.46792969 173.52980469 -171.93585938 174.05960938 -172.41796875 174.60546875 C-180.88068037 184.31805778 -187.28216841 197.89723108 -188.61328125 210.70703125 C-189 214 -189 214 -189.47924805 215.93188477 C-191.49231126 224.12926335 -191.26708678 232.32979416 -191.20581055 240.71508789 C-191.18742014 243.32382891 -191.18530231 245.93221614 -191.18554688 248.54101562 C-191.18063507 250.21094056 -191.17480822 251.8808631 -191.16796875 253.55078125 C-191.16685593 254.32480789 -191.1657431 255.09883453 -191.16459656 255.89631653 C-191.13100143 259.73053574 -190.85867326 263.26557748 -190 267 C-189.75336199 270.27480469 -189.5612783 273.54486018 -189.39453125 276.82421875 C-189.48340844 280.20190581 -189.48340844 280.20190581 -188 283 C-187.87625 284.051875 -187.7525 285.10375 -187.625 286.1875 C-186.99632344 290.02242699 -185.81699376 292.60301167 -184 296 C-184 296.66 -184 297.32 -184 298 C-183.01 298.33 -182.02 298.66 -181 299 C-180.05078125 300.99609375 -180.05078125 300.99609375 -179.3125 303.4375 C-179.06113281 304.24058594 -178.80976563 305.04367187 -178.55078125 305.87109375 C-178 308 -178 308 -178 310 C-177.01 310.33 -176.02 310.66 -175 311 C-173.5703125 313.546875 -173.5703125 313.546875 -172.125 316.75 C-169.38179228 322.45993607 -166.88059907 326.3252331 -161.3125 329.5625 C-159 331 -159 331 -158.13671875 332.8984375 C-155.5211952 337.73401026 -149.1410972 340.23637137 -144.15234375 342.015625 C-142.42068386 342.52391078 -140.6813358 343.00714445 -138.93359375 343.45703125 C-137 344 -137 344 -136 345 C-126.12948765 347.4594822 -116.07912536 347.34401854 -105.984375 347.4140625 C-104.46760101 347.43104207 -102.95083621 347.44886349 -101.43408203 347.4675293 C-95.87282642 347.53016997 -90.31139821 347.57664998 -84.75 347.625 C-72.2925 347.74875 -59.835 347.8725 -47 348 C-47 392.88 -47 437.76 -47 484 C-92.60064416 484.04030303 -92.60064416 484.04030303 -111.64648438 484.04882812 C-124.81958402 484.05477171 -137.99267729 484.06177502 -151.16577148 484.07543945 C-160.75781892 484.08538456 -170.34986121 484.09185301 -179.94191366 484.09408849 C-185.02415292 484.0953959 -190.10637744 484.09848361 -195.18861198 484.10573006 C-199.96635671 484.11248754 -204.74408055 484.11461752 -209.52182961 484.11310768 C-211.28071074 484.11338413 -213.03959253 484.11539086 -214.79846954 484.11920547 C-217.1891131 484.12413848 -219.57967646 484.12299976 -221.97032166 484.12025452 C-223.02818128 484.12462378 -223.02818128 484.12462378 -224.1074118 484.12908131 C-228.88587879 484.11412121 -228.88587879 484.11412121 -230 483 C-230.10165276 481.35569415 -230.13291516 479.70700448 -230.13701439 478.05956459 C-230.14208893 476.98305441 -230.14716347 475.90654422 -230.15239179 474.79741251 C-230.15288955 473.60006869 -230.15338731 472.40272487 -230.15390015 471.1690979 C-230.1582824 469.90854249 -230.16266465 468.64798709 -230.1671797 467.34923303 C-230.17917893 463.83419883 -230.18480137 460.31917838 -230.18936086 456.80412769 C-230.19530424 453.01944891 -230.20691714 449.23478667 -230.21765137 445.45011902 C-230.24220334 436.30250796 -230.25680604 427.15489141 -230.26971143 418.00725752 C-230.27342115 415.4254438 -230.27739455 412.84363063 -230.2814641 410.26181746 C-230.30669693 394.24372167 -230.32875931 378.22562509 -230.34119225 362.20751381 C-230.34412215 358.49511334 -230.34708378 354.7827129 -230.35009766 351.0703125 C-230.35084371 350.14756497 -230.35158976 349.22481744 -230.35235842 348.27410786 C-230.36502038 333.31583112 -230.39825312 318.35767303 -230.43989949 303.39945181 C-230.4822664 288.05722648 -230.50588115 272.71506199 -230.51111281 257.3727783 C-230.51453277 248.75249293 -230.52635647 240.13239301 -230.55921555 231.51216507 C-230.58714527 224.17289373 -230.59824671 216.83384582 -230.58702008 209.49452545 C-230.58181522 205.74722522 -230.58483718 202.00039338 -230.60948563 198.25316048 C-230.63594616 194.19673433 -230.62398042 190.1413498 -230.60800171 186.08486938 C-230.6218838 184.89198701 -230.63576588 183.69910463 -230.65006864 182.4700743 C-230.6394967 181.38834862 -230.62892476 180.30662294 -230.61803246 179.19211769 C-230.61938898 178.25513027 -230.62074551 177.31814285 -230.62214315 176.35276186 C-230 174 -230 174 -227.60736907 172.35176218 C-226.74693727 171.90568066 -225.88650548 171.45959914 -225 171 C-223.79216602 169.54171215 -222.58628995 168.08142616 -221.41113281 166.59667969 C-218.79102813 163.63206297 -215.56736483 161.43441065 -212.375 159.125 C-211.66786865 158.60542725 -210.9607373 158.08585449 -210.23217773 157.55053711 C-208.81412992 156.50990545 -207.39384409 155.47231569 -205.97119141 154.43798828 C-204.24561446 153.17917627 -202.5337244 151.90164595 -200.82421875 150.62109375 C-196.04222588 147.05658138 -191.2715771 143.95697199 -186.01171875 141.15234375 C-181.97186788 138.83825441 -178.51383122 136.54149366 -177 132 C-174.88451673 130.34350893 -172.78131551 128.81724044 -170.5625 127.3125 C-169.26798333 126.41237832 -167.97501993 125.51001883 -166.68359375 124.60546875 C-165.73202393 123.939104 -165.73202393 123.939104 -164.76123047 123.25927734 C-162.48046717 121.62853474 -160.2977087 119.89659325 -158.125 118.125 C-153.25429746 114.15657514 -148.23583859 110.40772076 -143.1953125 106.65966797 C-137.82105171 102.65060174 -132.54628168 98.52756762 -127.34082031 94.30151367 C-123.21622307 91 -123.21622307 91 -121 91 C-121 90.34 -121 89.68 -121 89 C-119.30508386 87.59731078 -117.542165 86.27609654 -115.75 85 C-114.77546875 84.29875 -113.8009375 83.5975 -112.796875 82.875 C-110.55852343 81.37442912 -108.40621865 80.18162523 -106 79 C-105.4225 78.4225 -104.845 77.845 -104.25 77.25 C-101.13294965 74.13294965 -97.69950581 71.4022765 -94 69 C-93.34 69 -92.68 69 -92 69 C-92 68.34 -92 67.68 -92 67 C-91.26394531 66.63648437 -90.52789062 66.27296875 -89.76953125 65.8984375 C-83.30402684 62.72241244 -83.30402684 62.72241244 -78.1875 57.8125 C-75.7033153 54.61854825 -73.60198544 53.72595136 -70 52 C-68.29006566 50.3777546 -66.62652316 48.70586575 -65 47 C-63.89210532 45.94015858 -62.7660056 44.8991097 -61.625 43.875 C-61.10164062 43.39804688 -60.57828125 42.92109375 -60.0390625 42.4296875 C-57.77834985 40.84459013 -55.42524416 39.94418059 -52.88183594 38.90185547 C-49.51029274 37.2860692 -46.70929372 34.96265251 -43.8125 32.625 C-42.90854492 31.92117187 -42.90854492 31.92117187 -41.98632812 31.203125 C-38.48026856 28.41675055 -35.74773082 25.56462377 -33 22 C-31.35857037 20.9590934 -29.69287785 19.95495674 -28 19 C-27.2575 18.2265625 -27.2575 18.2265625 -26.5 17.4375 C-25 16 -25 16 -22.66796875 15.109375 C-19.93217556 13.97179775 -18.09492634 12.68383266 -15.8125 10.8125 C-2.296875 0 -2.296875 0 0 0 Z " fill="#027BC1" transform="translate(515,33)"/>
<path d="M0 0 C0 111.87 0 223.74 0 339 C-71.61 339 -143.22 339 -217 339 C-217.32265079 261.19634639 -217.32265079 261.19634639 -217.390625 228.7421875 C-217.40628832 221.31347514 -217.42245228 213.88476412 -217.43945312 206.45605469 C-217.44156312 205.5249684 -217.44367311 204.59388211 -217.44584703 203.63458109 C-217.48065532 188.59673591 -217.54373316 173.5591351 -217.61722237 158.52143489 C-217.69199678 143.09223184 -217.73646219 127.66315684 -217.75270796 112.23378003 C-217.76369298 102.7104913 -217.7984044 93.18789294 -217.86333174 83.66481669 C-217.90557315 77.13720192 -217.91841152 70.60994477 -217.90801102 64.08220319 C-217.90287927 60.31399035 -217.91082216 56.54698487 -217.9536438 52.77898598 C-217.99972217 48.69462784 -217.98393193 44.61284809 -217.96203613 40.52828979 C-217.98533886 39.33568192 -218.0086416 38.14307405 -218.03265047 36.91432655 C-217.91822738 29.04626142 -217.91822738 29.04626142 -215.1546545 25.89734674 C-213.16357831 24.38670831 -211.22541094 23.13081177 -209 22 C-208.34 22.33 -207.68 22.66 -207 23 C-208.8125 25 -208.8125 25 -211 27 C-211.99 27 -212.98 27 -214 27 C-213.67 128.97 -213.34 230.94 -213 336 C-122.91 336.495 -122.91 336.495 -31 337 C-31 292.12 -31 247.24 -31 201 C-55.80033725 201.0789718 -55.80033725 201.0789718 -80.60058594 201.18017578 C-85.43408203 201.18920898 -85.43408203 201.18920898 -87.70806885 201.19088745 C-89.27171981 201.19392713 -90.83536654 201.20089457 -92.39898682 201.21115112 C-104.38474861 201.28573387 -115.98421187 201.29605199 -127 196 C-128.33075567 195.53423551 -129.66423672 195.07620248 -131 194.625 C-137.52024126 192.19415277 -141.52095931 189.00925211 -145 183 C-146.64333504 181.96210419 -148.31243867 180.96432076 -150 180 C-154.69953048 176.24037562 -156.56628721 171.96849107 -158.7890625 166.5234375 C-159.82867906 163.99948602 -159.82867906 163.99948602 -161.5546875 162.4453125 C-163.87582353 160.12417647 -164.28942773 157.25204383 -165.15625 154.15625 C-166.0858986 151.78048136 -167.14549956 150.71036828 -169 149 C-171.56058468 144.66670286 -172.41521768 140.9706497 -173 136 C-173.33 135.67 -173.66 135.34 -174 135 C-174.21259101 132.57882455 -174.37664599 130.17596222 -174.5 127.75 C-174.7148815 122.73423746 -174.7148815 122.73423746 -175.50488281 117.78808594 C-176.16355425 114.07899926 -176.182254 110.4112488 -176.203125 106.65625 C-176.20882507 105.85070679 -176.21452515 105.04516357 -176.22039795 104.21520996 C-176.22982323 102.51067404 -176.23637208 100.8061201 -176.24023438 99.1015625 C-176.24986442 96.53611885 -176.280879 93.97150336 -176.3125 91.40625 C-176.36657244 82.87435508 -176.0396398 75.07426995 -173.72070312 66.78686523 C-172.92585669 63.71329745 -172.5681478 60.71834523 -172.25 57.5625 C-169.77644943 40.75452112 -156.36861237 22.73275241 -142.98828125 12.75390625 C-135.6709004 8 -135.6709004 8 -133 8 C-133 7.34 -133 6.68 -133 6 C-130.77318028 5.36552578 -128.54402241 4.74255576 -126.3125 4.125 C-124.45044922 3.60292969 -124.45044922 3.60292969 -122.55078125 3.0703125 C-82.7730635 -6.28513356 -40.86307869 0 0 0 Z " fill="#FCFDFD" transform="translate(499,180)"/>
<path d="M0 0 C36.96 0 73.92 0 112 0 C112.99 0.99 112.99 0.99 114 2 C115.90474927 2.23391658 117.81019769 2.46352621 119.71875 2.6640625 C126.52038908 3.66567373 132.16031657 6.53944686 138 10 C139.155 10.4125 140.31 10.825 141.5 11.25 C145.57405762 13.28702881 147.53066167 15.6517949 150.359375 19.13671875 C152.30194705 21.34292558 154.45030536 22.57517064 157 24 C157.33 24.99 157.66 25.98 158 27 C158.89332031 27.85658203 158.89332031 27.85658203 159.8046875 28.73046875 C162.61082922 31.63148003 164.27011655 34.75436805 166.125 38.3125 C166.47175781 38.95123047 166.81851563 39.58996094 167.17578125 40.24804688 C169.38784488 44.43062696 170.78438706 48.43276854 172 53 C172.33 53.33 172.66 53.66 173 54 C174.09005491 60.13957396 174.32972928 66.28444939 174.60546875 72.50390625 C174.66154297 73.65052734 174.66154297 73.65052734 174.71875 74.8203125 C174.74904297 75.50367676 174.77933594 76.18704102 174.81054688 76.89111328 C174.96367104 79.06326163 174.96367104 79.06326163 175.50927734 81.40771484 C176.04057253 84.21432794 176.12949645 86.80065948 176.1328125 89.65625 C176.13619629 91.29859619 176.13619629 91.29859619 176.13964844 92.97412109 C176.13481445 94.13766113 176.12998047 95.30120117 176.125 96.5 C176.12016602 97.70092285 176.11533203 98.9018457 176.11035156 100.13916016 C176.08633944 103.75970844 176.04738366 107.37968662 176 111 C175.98743164 112.02577148 175.97486328 113.05154297 175.96191406 114.10839844 C175.7800872 125.06625002 174.95278437 134.65388636 171 145 C170.53681678 146.47765516 170.07813135 147.95673147 169.625 149.4375 C168.26244723 153.428891 166.72310372 157.34785378 165.125 161.25 C164.65320313 162.41015625 164.18140625 163.5703125 163.6953125 164.765625 C161.87847775 168.2318443 159.84019928 170.33927619 157 173 C156.06825065 174.24474008 155.1651411 175.51229314 154.3125 176.8125 C153.1678125 178.3903125 153.1678125 178.3903125 152 180 C151.34 180 150.68 180 150 180 C149.731875 180.639375 149.46375 181.27875 149.1875 181.9375 C148 184 148 184 145 185 C145 186.32 145 187.64 145 189 C142.96539231 190.01428514 140.92195394 191.01086789 138.875 192 C137.73804688 192.556875 136.60109375 193.11375 135.4296875 193.6875 C131.98680467 195.00504969 129.64330238 195.26577282 126 195 C126 195.66 126 196.32 126 197 C113.60588809 200.25095614 102.18652696 201.56175936 89.3984375 201.390625 C87.88778276 201.38471724 86.37711971 201.38065301 84.86645508 201.37841797 C79.36917556 201.35775465 73.87207323 201.30191336 68.375 201.25 C49.874375 201.12625 49.874375 201.12625 31 201 C31 246.87 31 292.74 31 340 C15.82 340 0.64 340 -15 340 C-15 339.34 -15 338.68 -15 338 C-10.05 338 -5.1 338 0 338 C0 226.46 0 114.92 0 0 Z " fill="#FDFEFD" transform="translate(18,179)"/>
<path d="M0 0 C145.2 0 290.4 0 440 0 C438.35 1.32 436.7 2.64 435 4 C433.9348928 4.91363597 432.87190897 5.82976272 431.8125 6.75 C429 9 429 9 427 9 C427 9.99 427 10.98 427 12 C425.845 12.350625 424.69 12.70125 423.5 13.0625 C419.14748687 14.67539937 416.21098778 17.12353217 412.859375 20.28125 C407.75454545 25 407.75454545 25 405 25 C405 25.66 405 26.32 405 27 C402.04518508 29.74375671 401.22528092 30 397 30 C397 30.66 397 31.32 397 32 C389.57142857 36.28571429 389.57142857 36.28571429 386 38 C386 38.66 386 39.32 386 40 C385.030625 40.268125 384.06125 40.53625 383.0625 40.8125 C381.5465625 41.4003125 381.5465625 41.4003125 380 42 C379.67 42.99 379.34 43.98 379 45 C377.9275 45.28875 376.855 45.5775 375.75 45.875 C371.52246172 47.14326148 369.93845095 48.80968183 367 52 C366.34 52 365.68 52 365 52 C365 52.66 365 53.32 365 54 C360.65550499 56.45383514 356.32621619 58.86973549 351.8125 61 C348.02072034 62.8542635 345.16070855 65.21556628 342 68 C341.34 68.33 340.68 68.66 340 69 C339.67 69.99 339.34 70.98 339 72 C337.109375 73.24609375 337.109375 73.24609375 334.75 74.4375 C331.14693574 76.33564426 328.16043104 78.42175363 325 81 C323.78210332 81.72754003 322.55214849 82.43517507 321.3125 83.125 C318.03833934 84.78363067 318.03833934 84.78363067 316 87 C314.34561387 87.69658363 312.67745682 88.36096883 311 89 C308.27249034 90.1080508 306.90857819 91.09589353 304.84375 93.26171875 C301.08716951 96.87897551 296.91599474 99.46907264 292.52734375 102.25 C288.53427746 104.83137619 285.34680405 107.58950245 282 111 C280.1484375 112.08203125 280.1484375 112.08203125 278.375 112.8125 C273.55196347 115.03072863 269.52553226 118.18107008 265.3203125 121.390625 C263 123 263 123 261 123 C261 123.66 261 124.32 261 125 C259.824375 125.45375 258.64875 125.9075 257.4375 126.375 C252.65452899 128.49481275 248.35710005 131.19234268 244 134.0625 C243.3289624 134.49804199 242.6579248 134.93358398 241.96655273 135.38232422 C238.04627067 137.92106354 238.04627067 137.92106354 236 142 C232.76223566 143.92724068 229.83900482 145.04222824 226.1875 146 C225.135625 146.33 224.08375 146.66 223 147 C222.67 147.99 222.34 148.98 222 150 C218.74621576 150.37186106 217.37626008 150.27456817 214.6875 148.3125 C213.800625 147.549375 212.91375 146.78625 212 146 C208.52216402 143.6908869 204.95732696 141.53432202 201.3125 139.5 C199 138 199 138 196.75 135.625 C193.73979784 132.75162522 190.76922528 131.08400876 187.0859375 129.2109375 C185 128 185 128 183.578125 126.5390625 C180.71628974 123.74806474 176.9408258 122.28514056 173.3984375 120.5 C171 119 171 119 170 116 C167.92348958 114.73926153 165.84814499 113.94548795 163.5625 113.125 C160.58947796 111.81977081 158.49907117 110.06173371 156 108 C154.34051852 106.98812105 152.67419438 105.9873454 151 105 C150.319375 104.46375 149.63875 103.9275 148.9375 103.375 C147.12052773 101.88488769 147.12052773 101.88488769 145.0625 101.625 C142.49951429 100.84833766 141.40124432 99.3796018 139.6171875 97.45703125 C137.57617166 95.61814499 135.38102428 94.36714599 133 93 C130.04797697 91.30074445 127.9567719 89.95566349 125.5625 87.5 C122.26601308 84.2839152 118.61079104 82.50135984 114.5234375 80.4296875 C112.22147821 79.12548146 110.78299713 77.90997616 109 76 C108.195625 75.525625 107.39125 75.05125 106.5625 74.5625 C103.9261574 72.95497402 102.14184811 71.20878086 100 69 C96.5026655 65.79411004 93.45617466 64.27570886 88.96484375 63.00390625 C87 62 87 62 85.1875 59.671875 C82.5701367 56.47495268 79.60437456 54.686792 76.0625 52.6875 C74.72886629 51.90936875 73.39553921 51.13071176 72.0625 50.3515625 C71.38960938 49.96258789 70.71671875 49.57361328 70.0234375 49.17285156 C66.85074079 47.3338512 63.70154597 45.45824619 60.5625 43.5625 C58.95568359 42.60537109 58.95568359 42.60537109 57.31640625 41.62890625 C56.55199219 41.09136719 55.78757813 40.55382813 55 40 C55 39.34 55 38.68 55 38 C54.236875 37.731875 53.47375 37.46375 52.6875 37.1875 C50.0427406 36.01888538 48.99065202 34.99065202 47 33 C45.34183216 32.31246699 43.67540664 31.64438717 42 31 C41.34 30.34 40.68 29.68 40 29 C39.401875 28.896875 38.80375 28.79375 38.1875 28.6875 C35.56139098 27.86215145 34.45387021 26.43825689 32.62109375 24.45703125 C30.56308492 22.60730283 28.34157695 21.36619351 25.9375 20 C22.02252097 17.7446945 19.69656055 15.65961789 17 12 C13.85716319 9.62541219 11.04269891 8.01693233 7.375 6.5625 C4 5 4 5 0 0 Z " fill="#D9251C" transform="translate(39,8)"/>
<path d="M0 0 C10.27524869 -0.04645882 20.55047215 -0.08193785 30.82580471 -0.10362434 C35.59769351 -0.11403579 40.36951014 -0.12814656 45.14135742 -0.15087891 C49.75142686 -0.17270169 54.36142713 -0.18458845 58.97154427 -0.18975449 C60.72529246 -0.19343336 62.47903712 -0.20061707 64.23275566 -0.21146011 C81.15640434 -0.31188082 81.15640434 -0.31188082 89 2 C89 2.66 89 3.32 89 4 C89.99 4 90.98 4 92 4 C92 4.66 92 5.32 92 6 C92.721875 6.061875 93.44375 6.12375 94.1875 6.1875 C97.90666917 7.26192665 99.54777495 9.05732994 102 12 C102 12.99 102 13.98 102 15 C102.99 15.33 103.98 15.66 105 16 C108.72899906 21.72992538 111.21855915 28.41999595 113 35 C113.16991455 35.58297852 113.3398291 36.16595703 113.51489258 36.76660156 C115.40368471 43.99841022 115.34394195 51.18897888 115.3125 58.625 C115.31100952 59.29130432 115.30951904 59.95760864 115.3079834 60.644104 C115.25547386 73.66607873 114.60874146 85.48799875 108 97 C107.67 97.9075 107.34 98.815 107 99.75 C105.37132034 103.41452923 102.97906537 105.42260248 99.5625 107.4375 C96.82741141 108.96035551 96.82741141 108.96035551 94.4375 111.625 C91.94594831 114.05266575 91.17712538 114.25867074 88 115 C87.608125 115.639375 87.21625 116.27875 86.8125 116.9375 C83.91513949 120.23449644 80.18107404 120.45969971 76 121 C70.24856085 121.27589877 64.50678518 121.25774256 58.75 121.23046875 C57.0837406 121.229275 55.41748051 121.2288242 53.7512207 121.2290802 C50.2782768 121.22752387 46.80543722 121.21929418 43.33251953 121.20581055 C38.87237793 121.18871561 34.4123495 121.18499967 29.95217896 121.18575573 C26.52080193 121.18548464 23.08944982 121.18001497 19.65808105 121.17275429 C18.01216826 121.16956614 16.36625263 121.16759987 14.72033691 121.16686058 C12.43199779 121.16470455 10.14378166 121.15597962 7.85546875 121.14526367 C6.55246826 121.14145187 5.24946777 121.13764008 3.90698242 121.13371277 C1 121 1 121 0 120 C-0.09588124 118.44379604 -0.12188033 116.88323546 -0.12025452 115.32408142 C-0.12162918 114.31300827 -0.12300385 113.30193512 -0.12442017 112.26022339 C-0.12082489 111.14173004 -0.11722961 110.02323669 -0.11352539 108.87084961 C-0.11367142 107.70027512 -0.11381744 106.52970062 -0.1139679 105.32365417 C-0.11338895 102.10479057 -0.10835991 98.88596996 -0.10139394 95.66711497 C-0.09515957 92.306526 -0.09455654 88.94593627 -0.09336853 85.58534241 C-0.09025546 79.21757658 -0.0820424 72.84982784 -0.07201904 66.48206955 C-0.06085715 59.23430271 -0.05534726 51.98653507 -0.05032361 44.73876178 C-0.03985977 29.82583165 -0.0222608 14.91291753 0 0 Z " fill="#017BC1" transform="translate(49,220)"/>
<path d="M0 0 C0.78145386 -0.00029205 1.56290771 -0.00058411 2.36804199 -0.00088501 C4.92191109 0.00049573 7.47547946 0.01599698 10.02929688 0.03173828 C11.81148113 0.03547289 13.59366745 0.03831774 15.37585449 0.04031372 C20.04473637 0.04791493 24.71349192 0.06753293 29.38232422 0.08972168 C34.15525606 0.1102561 38.9282085 0.11933162 43.70117188 0.12939453 C53.05018542 0.15078241 62.3991056 0.18487554 71.74804688 0.22705078 C71.77137626 15.85583439 71.78902624 31.48461332 71.79985905 47.11341 C71.80502192 54.36963927 71.81206445 61.62585774 71.82348633 68.88208008 C71.83343343 75.20438934 71.83990036 81.52669079 71.84213537 87.84900767 C71.84344243 91.19861828 71.846528 94.54820652 71.85377693 97.89780998 C71.86098308 101.63118723 71.862038 105.36451736 71.86157227 109.09790039 C71.86516754 110.21639374 71.86876282 111.33488708 71.87246704 112.48727417 C71.87109238 113.49834732 71.86971771 114.50942047 71.86830139 115.5511322 C71.86922318 116.43513167 71.87014498 117.31913115 71.8710947 118.22991848 C71.74804688 120.22705078 71.74804688 120.22705078 70.74804688 121.22705078 C68.47812801 121.32145056 66.2052272 121.34447305 63.93334961 121.34057617 C62.86511459 121.34079521 62.86511459 121.34079521 61.77529907 121.34101868 C59.41071575 121.34031949 57.04621026 121.33252684 54.68164062 121.32470703 C53.04639224 121.32284287 51.4111433 121.32141896 49.77589417 121.32041931 C45.46369902 121.31659396 41.15153735 121.30676353 36.83935547 121.29571533 C32.44238742 121.28550158 28.04541398 121.28092177 23.6484375 121.27587891 C15.01495857 121.26514127 6.38150688 121.24806465 -2.25195312 121.22705078 C-2.25195312 120.56705078 -2.25195312 119.90705078 -2.25195312 119.22705078 C-3.13947266 119.15357422 -3.13947266 119.15357422 -4.04492188 119.07861328 C-8.44299784 118.66248211 -12.22124209 118.17739483 -16.25195312 116.22705078 C-16.25195312 115.56705078 -16.25195312 114.90705078 -16.25195312 114.22705078 C-16.96738281 114.15615234 -17.6828125 114.08525391 -18.41992188 114.01220703 C-25.45735685 112.06113885 -31.02454733 104.49187722 -34.67382812 98.39501953 C-44.72041223 80.16875809 -44.86535327 56.26742592 -40.25195312 36.22705078 C-40.08050781 35.38916016 -39.9090625 34.55126953 -39.73242188 33.68798828 C-37.04401868 22.76093013 -29.71736389 11.61105179 -21.25195312 4.22705078 C-14.50123252 0.86936252 -7.42298527 -0.07420491 0 0 Z " fill="#017BC1" transform="translate(397.251953125,219.77294921875)"/>
<path d="M0 0 C0.99 0.66 1.98 1.32 3 2 C3.37259549 4.24253809 3.37259549 4.24253809 3.36914349 7.10309792 C3.37511663 8.19041604 3.38108978 9.27773416 3.38724393 10.39800131 C3.3785054 11.60226055 3.36976688 12.80651979 3.36076355 14.04727173 C3.36332682 15.31896536 3.3658901 16.590659 3.36853105 17.9008888 C3.3752647 21.44236112 3.36320417 24.98356319 3.34819686 28.52500105 C3.33528199 32.33958926 3.33962272 36.15416134 3.34190369 39.96876526 C3.34347931 46.58167783 3.33403998 53.19450183 3.31719017 59.80739212 C3.29284381 69.36859218 3.28499938 78.92974927 3.2812262 88.49097697 C3.27465484 104.00214697 3.25467517 119.51326973 3.22631836 135.02441406 C3.19879546 150.09504971 3.17758762 165.16567248 3.16479492 180.23632812 C3.16399093 181.17423557 3.16318694 182.11214302 3.16235858 183.0784719 C3.15612058 190.41315724 3.15024971 197.74784286 3.14449489 205.08252859 C3.11617661 241.05506242 3.05582585 277.02747803 3 313 C-58.38 313 -119.76 313 -183 313 C-183 267.13 -183 221.26 -183 174 C-145.3125 173.6875 -145.3125 173.6875 -133.48950195 173.61206055 C-129.93841728 173.57542142 -129.93841728 173.57542142 -126.38737488 173.5349884 C-124.82715781 173.51902349 -123.26687698 173.50861165 -121.70658875 173.50288391 C-112.69269656 173.46546825 -104.45330468 173.07264094 -95.69523621 170.63825989 C-93.02538131 170.00601056 -90.73170882 169.88315135 -88 170 C-88 169.34 -88 168.68 -88 168 C-86.68 168.33 -85.36 168.66 -84 169 C-84.56589844 169.27714844 -85.13179688 169.55429687 -85.71484375 169.83984375 C-86.44832031 170.20207031 -87.18179688 170.56429687 -87.9375 170.9375 C-89.03384766 171.47697266 -89.03384766 171.47697266 -90.15234375 172.02734375 C-91.96249027 172.86371827 -91.96249027 172.86371827 -93 174 C-95.0572917 174.31923492 -97.11613521 174.51161352 -99.1875 174.71875 C-101.0167533 174.81998043 -101.0167533 174.81998043 -102 176 C-104.46448128 176.09500705 -106.9007083 176.12556678 -109.36547852 176.11352539 C-110.14866172 176.11364593 -110.93184492 176.11376646 -111.73876095 176.11389065 C-114.28550448 176.11314152 -116.83217573 176.10551331 -119.37890625 176.09765625 C-120.94657353 176.09618683 -122.51424131 176.09516612 -124.08190918 176.09460449 C-129.90878025 176.08935161 -135.73564082 176.07539052 -141.5625 176.0625 C-154.576875 176.041875 -167.59125 176.02125 -181 176 C-181 220.22 -181 264.44 -181 310 C-121.27 310 -61.54 310 0 310 C0 207.7 0 105.4 0 0 Z " fill="#68ABD3" transform="translate(232,206)"/>
<path d="M0 0 C0.66 0.33 1.32 0.66 2 1 C0.1875 3 0.1875 3 -2 5 C-2.99 5 -3.98 5 -5 5 C-4.67 106.97 -4.34 208.94 -4 314 C86.09 314.495 86.09 314.495 178 315 C178 270.12 178 225.24 178 179 C152.59 179 127.18 179 101 179 C101 178.67 101 178.34 101 178 C127.07 178 153.14 178 180 178 C180 223.87 180 269.74 180 317 C117.96 317 55.92 317 -8 317 C-8.32265079 239.19634639 -8.32265079 239.19634639 -8.390625 206.7421875 C-8.40628832 199.31347514 -8.42245228 191.88476412 -8.43945312 184.45605469 C-8.44156312 183.5249684 -8.44367311 182.59388211 -8.44584703 181.63458109 C-8.48065532 166.59673591 -8.54373316 151.5591351 -8.61722237 136.52143489 C-8.69199678 121.09223184 -8.73646219 105.66315684 -8.75270796 90.23378003 C-8.76369298 80.7104913 -8.7984044 71.18789294 -8.86333174 61.66481669 C-8.90557315 55.13720192 -8.91841152 48.60994477 -8.90801102 42.08220319 C-8.90287927 38.31399035 -8.91082216 34.54698487 -8.9536438 30.77898598 C-8.99972217 26.69462784 -8.98393193 22.61284809 -8.96203613 18.52828979 C-8.98533886 17.33568192 -9.0086416 16.14307405 -9.03265047 14.91432655 C-8.91822738 7.04626142 -8.91822738 7.04626142 -6.1546545 3.89734674 C-4.16357831 2.38670831 -2.22541094 1.13081177 0 0 Z " fill="#9FCAE0" transform="translate(290,202)"/>
<path d="M0 0 C36.96 0 73.92 0 112 0 C112.99 1.485 112.99 1.485 114 3 C77.37 2.67 40.74 2.34 3 2 C3 113.54 3 225.08 3 340 C-2.94 340 -8.88 340 -15 340 C-15 339.34 -15 338.68 -15 338 C-10.05 338 -5.1 338 0 338 C0 226.46 0 114.92 0 0 Z " fill="#ACD0E5" transform="translate(18,179)"/>
<path d="M0 0 C0 111.21 0 222.42 0 337 C4.62 337 9.24 337 14 337 C14 337.99 14 338.98 14 340 C8.72 340 3.44 340 -2 340 C-2 228.13 -2 116.26 -2 1 C-62.84468456 -0.52635594 -62.84468456 -0.52635594 -123 5 C-125.31 5.33 -127.62 5.66 -130 6 C-96.12633066 -21.09893547 -43.37946263 0 0 0 Z " fill="#66ABD1" transform="translate(501,179)"/>
<path d="M0 0 C10.39614413 -0.04627317 20.7922639 -0.08184359 31.18848991 -0.10362434 C36.01550805 -0.11407626 40.84245591 -0.12826104 45.66943359 -0.15087891 C50.32485778 -0.17255722 54.98021422 -0.18455801 59.63568497 -0.18975449 C61.41475619 -0.19345928 63.19382356 -0.20069348 64.97286606 -0.21146011 C67.45839294 -0.22590854 69.94363733 -0.22798075 72.42919922 -0.22705078 C73.54050201 -0.23783661 73.54050201 -0.23783661 74.67425537 -0.24884033 C79.77189568 -0.22810432 79.77189568 -0.22810432 82 2 C55.6 1.67 29.2 1.34 2 1 C2 39.94 2 78.88 2 119 C19.8509375 118.7834375 19.8509375 118.7834375 38.0625 118.5625 C41.80988525 118.51939697 45.55727051 118.47629395 49.41821289 118.43188477 C52.79907253 118.38859674 52.79907253 118.38859674 56.17991638 118.34410095 C57.67708834 118.32497332 59.17428378 118.30762949 60.67149353 118.29173279 C62.94912182 118.26719465 65.22660969 118.23686406 67.50415039 118.20532227 C68.78544327 118.18977798 70.06673615 118.1742337 71.38685608 118.15821838 C76.68591696 117.92617425 81.81733664 117.09935283 87 116 C85 119 85 119 81.453125 120.1730957 C73.99020553 121.60662413 66.31784685 121.26632279 58.75 121.23046875 C57.0837406 121.229275 55.41748051 121.2288242 53.7512207 121.2290802 C50.2782768 121.22752387 46.80543722 121.21929418 43.33251953 121.20581055 C38.87237793 121.18871561 34.4123495 121.18499967 29.95217896 121.18575573 C26.52080193 121.18548464 23.08944982 121.18001497 19.65808105 121.17275429 C18.01216826 121.16956614 16.36625263 121.16759987 14.72033691 121.16686058 C12.43199779 121.16470455 10.14378166 121.15597962 7.85546875 121.14526367 C6.55246826 121.14145187 5.24946777 121.13764008 3.90698242 121.13371277 C1 121 1 121 0 120 C-0.09588124 118.44379604 -0.12188033 116.88323546 -0.12025452 115.32408142 C-0.12162918 114.31300827 -0.12300385 113.30193512 -0.12442017 112.26022339 C-0.12082489 111.14173004 -0.11722961 110.02323669 -0.11352539 108.87084961 C-0.11367142 107.70027512 -0.11381744 106.52970062 -0.1139679 105.32365417 C-0.11338895 102.10479057 -0.10835991 98.88596996 -0.10139394 95.66711497 C-0.09515957 92.306526 -0.09455654 88.94593627 -0.09336853 85.58534241 C-0.09025546 79.21757658 -0.0820424 72.84982784 -0.07201904 66.48206955 C-0.06085715 59.23430271 -0.05534726 51.98653507 -0.05032361 44.73876178 C-0.03985977 29.82583165 -0.0222608 14.91291753 0 0 Z " fill="#52A4D1" transform="translate(49,220)"/>
<path d="M0 0 C0.67475183 -0.00012053 1.34950367 -0.00024107 2.04470253 -0.00036526 C4.20903552 0.00037567 6.37328026 0.00796617 8.53759766 0.01586914 C9.88175414 0.0173411 11.22591119 0.01836025 12.57006836 0.0189209 C17.53060775 0.0241443 22.49113484 0.03810557 27.45166016 0.05102539 C38.54791016 0.07165039 49.64416016 0.09227539 61.07666016 0.11352539 C61.07666016 39.05352539 61.07666016 77.99352539 61.07666016 118.11352539 C60.08666016 118.11352539 59.09666016 118.11352539 58.07666016 118.11352539 C58.07666016 79.83352539 58.07666016 41.55352539 58.07666016 2.11352539 C34.64666016 2.11352539 11.21666016 2.11352539 -12.92333984 2.11352539 C-12.92333984 1.78352539 -12.92333984 1.45352539 -12.92333984 1.11352539 C-8.55800541 0.27540712 -4.44226414 -0.008257 0 0 Z " fill="#006EB8" transform="translate(405.92333984375,220.886474609375)"/>
<path d="M0 0 C1.77789448 0.00560605 3.55579365 0.00987137 5.33369446 0.01286316 C9.97794744 0.0242326 14.621912 0.05363029 19.26605225 0.0869751 C24.01912537 0.11784781 28.7722458 0.131405 33.52539062 0.14648438 C42.82564648 0.17850877 52.12568973 0.22960769 61.42578125 0.29296875 C61.44911063 15.92175236 61.46676062 31.55053128 61.47759342 47.17932796 C61.4827563 54.43555724 61.48979883 61.69177571 61.5012207 68.94799805 C61.51116781 75.27030731 61.51763474 81.59260876 61.51986974 87.91492563 C61.52117681 91.26453625 61.52426238 94.61412449 61.53151131 97.96372795 C61.53871745 101.6971052 61.53977237 105.43043533 61.53930664 109.16381836 C61.54290192 110.28231171 61.54649719 111.40080505 61.55020142 112.55319214 C61.54882675 113.56426529 61.54745209 114.57533844 61.54603577 115.61705017 C61.54695756 116.50104964 61.54787935 117.38504911 61.54882908 118.29583645 C61.42578125 120.29296875 61.42578125 120.29296875 60.42578125 121.29296875 C58.15586238 121.38736853 55.88296158 121.41039101 53.61108398 121.40649414 C52.54284897 121.40671318 52.54284897 121.40671318 51.45303345 121.40693665 C49.08845013 121.40623745 46.72394464 121.39844481 44.359375 121.390625 C42.72412662 121.38876084 41.08887768 121.38733693 39.45362854 121.38633728 C35.1414334 121.38251193 30.82927173 121.3726815 26.51708984 121.3616333 C22.12012179 121.35141955 17.72314836 121.34683974 13.32617188 121.34179688 C4.69269294 121.33105924 -3.94075875 121.31398262 -12.57421875 121.29296875 C-12.57421875 120.96296875 -12.57421875 120.63296875 -12.57421875 120.29296875 C11.18578125 120.29296875 34.94578125 120.29296875 59.42578125 120.29296875 C59.42578125 81.02296875 59.42578125 41.75296875 59.42578125 1.29296875 C34.34578125 1.29296875 9.26578125 1.29296875 -16.57421875 1.29296875 C-16.57421875 1.95296875 -16.57421875 2.61296875 -16.57421875 3.29296875 C-19.54421875 3.29296875 -22.51421875 3.29296875 -25.57421875 3.29296875 C-25.57421875 3.95296875 -25.57421875 4.61296875 -25.57421875 5.29296875 C-27.88421875 5.62296875 -30.19421875 5.95296875 -32.57421875 6.29296875 C-25.18479416 -2.18074085 -10.19511177 -0.0951411 0 0 Z " fill="#61A7D1" transform="translate(407.57421875,219.70703125)"/>
<path d="M0 0 C25.41 0 50.82 0 77 0 C76.67 0.99 76.34 1.98 76 3 C75.89853125 4.68720226 75.85374467 6.37807473 75.84178162 8.06828308 C75.8319928 9.11576218 75.82220398 10.16324127 75.81211853 11.24246216 C75.80636307 12.39116791 75.8006076 13.53987366 75.79467773 14.72338867 C75.78477814 15.9332695 75.77487854 17.14315033 75.76467896 18.38969421 C75.73848548 21.70758731 75.7166258 25.02545627 75.69667697 28.34338927 C75.67481016 31.81076506 75.64742487 35.27809712 75.62062073 38.74543762 C75.57070324 45.31143412 75.52576091 51.87745491 75.48259836 58.44349891 C75.43321792 65.91866669 75.37830278 73.39379058 75.32291877 80.86891592 C75.20911322 96.24590339 75.10227108 111.62293122 75 127 C74.67 127 74.34 127 74 127 C74 85.75 74 44.5 74 2 C49.58 2 25.16 2 0 2 C0 1.34 0 0.68 0 0 Z " fill="#0072BB" transform="translate(390,382)"/>
<path d="M0 0 C1.32 0.33 2.64 0.66 4 1 C3.43410156 1.27714844 2.86820312 1.55429687 2.28515625 1.83984375 C1.18494141 2.38318359 1.18494141 2.38318359 0.0625 2.9375 C-1.03384766 3.47697266 -1.03384766 3.47697266 -2.15234375 4.02734375 C-3.96249027 4.86371827 -3.96249027 4.86371827 -5 6 C-7.0572917 6.31923492 -9.11613521 6.51161352 -11.1875 6.71875 C-13.0167533 6.81998043 -13.0167533 6.81998043 -14 8 C-16.46448128 8.09500705 -18.9007083 8.12556678 -21.36547852 8.11352539 C-22.14866172 8.11364593 -22.93184492 8.11376646 -23.73876095 8.11389065 C-26.28550448 8.11314152 -28.83217573 8.10551331 -31.37890625 8.09765625 C-32.94657353 8.09618683 -34.51424131 8.09516612 -36.08190918 8.09460449 C-41.90878025 8.08935161 -47.73564082 8.07539052 -53.5625 8.0625 C-66.576875 8.041875 -79.59125 8.02125 -93 8 C-93 52.55 -93 97.1 -93 143 C-93.33 143 -93.66 143 -94 143 C-94 98.12 -94 53.24 -94 7 C-59.5 6.6875 -59.5 6.6875 -48.70898438 6.61206055 C-45.44535096 6.57538797 -45.44535096 6.57538797 -42.1817627 6.5349884 C-40.7566808 6.51910672 -39.33153083 6.50864014 -37.90637207 6.50288391 C-28.5314423 6.46009995 -19.76731064 5.66333014 -10.5826416 3.73591614 C-7.05571228 3.01144395 -3.56709526 2.47453943 0 2 C0 1.34 0 0.68 0 0 Z " fill="#3296CB" transform="translate(144,374)"/>
<path d="M0 0 C0.33 0 0.66 0 1 0 C4.35309431 12.0711395 4.30918662 24.30420451 4.375 36.75 C4.38022675 37.61362152 4.38545349 38.47724304 4.39083862 39.36703491 C4.42954605 53.20742934 4.33798571 68.32402858 -2 81 C-2.66 81 -3.32 81 -4 81 C-4 83.64 -4 86.28 -4 89 C-4.66 89 -5.32 89 -6 89 C-6.103125 89.70125 -6.20625 90.4025 -6.3125 91.125 C-7.10054272 94.42045139 -8.32869762 97.05850781 -10 100 C-10.99 100.495 -10.99 100.495 -12 101 C-11.0144229 97.0576916 -9.8866645 93.60437396 -8 90 C-6.13532564 86.40090426 -5.03257259 82.936683 -4 79 C-3.67902344 78.14535156 -3.35804688 77.29070312 -3.02734375 76.41015625 C0.69369977 66.0472501 0.86627483 55.91403152 1 45 C1.01514648 43.84274414 1.03029297 42.68548828 1.04589844 41.49316406 C1.08584592 37.82871359 1.11024902 34.1646355 1.125 30.5 C1.12983398 29.33645996 1.13466797 28.17291992 1.13964844 26.97412109 C1.13739258 25.87922363 1.13513672 24.78432617 1.1328125 23.65625 C1.13168457 22.68494141 1.13055664 21.71363281 1.12939453 20.71289062 C1.00196032 18.0411001 0.5521867 15.61198664 0 13 C-0.06652855 10.73004581 -0.08543751 8.45831305 -0.0625 6.1875 C-0.05347656 5.02605469 -0.04445312 3.86460937 -0.03515625 2.66796875 C-0.02355469 1.78753906 -0.01195312 0.90710938 0 0 Z " fill="#56A3CD" transform="translate(192,245)"/>
<path d="M0 0 C0.95881215 3.47413751 0.92879592 6.08332906 0.5625 9.6875 C-0.64038373 24.71573568 -0.24285856 39.88949232 0.4375 54.9375 C0.47665527 55.8251001 0.51581055 56.7127002 0.55615234 57.62719727 C0.67368539 61.95142037 0.67368539 61.95142037 2 66 C2.07065617 68.04055005 2.08421976 70.08334257 2.0625 72.125 C2.05347656 73.22070312 2.04445313 74.31640625 2.03515625 75.4453125 C2.02355469 76.28835938 2.01195312 77.13140625 2 78 C2.99 78.33 3.98 78.66 5 79 C5 80.98 5 82.96 5 85 C1.89766736 80.34650105 0.72086796 77.5609814 0 72 C-0.33 71.67 -0.66 71.34 -1 71 C-1.21259101 68.57882455 -1.37664599 66.17596222 -1.5 63.75 C-1.7148815 58.73423746 -1.7148815 58.73423746 -2.50488281 53.78808594 C-3.16355425 50.07899926 -3.182254 46.4112488 -3.203125 42.65625 C-3.20882507 41.85070679 -3.21452515 41.04516357 -3.22039795 40.21520996 C-3.22982323 38.51067404 -3.23637208 36.8061201 -3.24023438 35.1015625 C-3.24986442 32.53611885 -3.280879 29.97150336 -3.3125 27.40625 C-3.37257356 17.81124536 -2.77709903 9.25699678 0 0 Z " fill="#AFD2E3" transform="translate(326,244)"/>
<path d="M0 0 C2 1 2 1 2.78125 2.75 C3.0184375 3.4925 3.255625 4.235 3.5 5 C3.7371875 5.721875 3.974375 6.44375 4.21875 7.1875 C4.4765625 8.115625 4.734375 9.04375 5 10 C5.17426514 10.59603027 5.34853027 11.19206055 5.52807617 11.80615234 C7.41145714 19.02142946 7.34386727 26.20663993 7.3125 33.625 C7.31100952 34.29130432 7.30951904 34.95760864 7.3079834 35.644104 C7.25547386 48.66607873 6.60874146 60.48799875 0 72 C-0.4640625 73.36125 -0.4640625 73.36125 -0.9375 74.75 C-2.34453594 77.72960552 -4.34786563 79.11558874 -7 81 C-6.1875 78.0625 -6.1875 78.0625 -5 75 C-3.515 74.505 -3.515 74.505 -2 74 C-1.81824219 72.86111328 -1.81824219 72.86111328 -1.6328125 71.69921875 C-1.38144531 70.20841797 -1.38144531 70.20841797 -1.125 68.6875 C-0.96257812 67.70136719 -0.80015625 66.71523438 -0.6328125 65.69921875 C0 63 0 63 2 60 C2.43282057 57.27860529 2.78595768 54.61156661 3.0625 51.875 C3.87827988 44.12172012 3.87827988 44.12172012 5 43 C5.15582303 41.65984779 5.25044142 40.31241097 5.31640625 38.96484375 C5.35830078 38.15595703 5.40019531 37.34707031 5.44335938 36.51367188 C5.50233398 35.2384668 5.50233398 35.2384668 5.5625 33.9375 C5.60568359 33.08349609 5.64886719 32.22949219 5.69335938 31.34960938 C5.79976702 29.23327963 5.90041731 27.11666187 6 25 C5.34 25 4.68 25 4 25 C3.87882813 23.94941406 3.75765625 22.89882813 3.6328125 21.81640625 C2.75978794 14.43873394 1.8049811 7.2199244 0 0 Z " fill="#6AACD0" transform="translate(157,245)"/>
<path d="M0 0 C9.2054213 -0.04630932 18.41080259 -0.08186203 27.61631489 -0.10362434 C31.89065473 -0.11406835 36.16491496 -0.12823877 40.43920898 -0.15087891 C44.56296256 -0.17258534 48.68663949 -0.18456398 52.81044579 -0.18975449 C54.38494257 -0.1934542 55.95943509 -0.2006787 57.53389931 -0.21146011 C59.73664084 -0.22594594 61.93906432 -0.22797918 64.1418457 -0.22705078 C65.39649124 -0.231492 66.65113678 -0.23593323 67.94380188 -0.24050903 C71 0 71 0 74 2 C73.11716843 2.00808685 72.23433685 2.01617371 71.32475281 2.02450562 C63.01093919 2.1023982 54.69728869 2.18967265 46.38368511 2.28752708 C42.10942019 2.33750482 37.83518017 2.38383465 33.56079102 2.421875 C29.43691718 2.45870926 25.31325087 2.50506399 21.18955421 2.55806351 C19.61510668 2.57661738 18.04061465 2.59172168 16.46610069 2.60334396 C14.26323502 2.62018966 12.06084566 2.64921977 9.8581543 2.68115234 C8.60350876 2.69447601 7.34886322 2.70779968 6.05619812 2.7215271 C2.82712806 2.77081277 2.82712806 2.77081277 0 5 C0 3.35 0 1.7 0 0 Z " fill="#0070BC" transform="translate(51,221)"/>
<path d="M0 0 C2.35224791 0.00373907 4.7044974 0.0065818 7.05674744 0.00857544 C13.19028164 0.01614161 19.32371822 0.03572826 25.45721436 0.0579834 C31.73904094 0.07859461 38.02088359 0.08760953 44.30273438 0.09765625 C56.58597994 0.11898205 68.86915367 0.15303122 81.15234375 0.1953125 C81.15234375 0.5253125 81.15234375 0.8553125 81.15234375 1.1953125 C79.87242554 1.20117874 78.59250732 1.20704498 77.27380371 1.21308899 C65.15256378 1.27055143 53.03149922 1.343434 40.91043854 1.43102741 C34.68037739 1.47556411 28.45037913 1.51485629 22.22021484 1.54174805 C16.19650778 1.56794854 10.17304493 1.60846704 4.14949036 1.65849876 C1.86289023 1.675055 -0.42375202 1.68663868 -2.71040344 1.69292641 C-14.22594026 1.7277646 -25.25467043 1.95973719 -36.52648926 4.45939636 C-39.95411856 5.2189028 -43.36820088 5.73681463 -46.84765625 6.1953125 C-36.3864717 -3.63377796 -13.43411112 -0.06343918 0 0 Z " fill="#65AED5" transform="translate(417.84765625,178.8046875)"/>
<path d="M0 0 C1.32 0.33 2.64 0.66 4 1 C3.43410156 1.27714844 2.86820312 1.55429687 2.28515625 1.83984375 C1.18494141 2.38318359 1.18494141 2.38318359 0.0625 2.9375 C-1.03384766 3.47697266 -1.03384766 3.47697266 -2.15234375 4.02734375 C-3.96249027 4.86371827 -3.96249027 4.86371827 -5 6 C-7.0572917 6.31923492 -9.11613521 6.51161352 -11.1875 6.71875 C-13.0167533 6.81998043 -13.0167533 6.81998043 -14 8 C-16.49492388 8.09502416 -18.96206014 8.12557566 -21.45727539 8.11352539 C-22.23770706 8.11367142 -23.01813873 8.11381744 -23.82221985 8.1139679 C-26.4140598 8.11326858 -29.00582878 8.10547536 -31.59765625 8.09765625 C-33.3898464 8.09579213 -35.18203706 8.0943682 -36.97422791 8.09336853 C-41.70070797 8.08954284 -46.42715752 8.07971212 -51.15362549 8.06866455 C-55.9728555 8.05845153 -60.79209042 8.05387115 -65.61132812 8.04882812 C-75.07423219 8.03808989 -84.53711356 8.02101286 -94 8 C-94 7.67 -94 7.34 -94 7 C-93.14603638 6.99413376 -92.29207275 6.98826752 -91.41223145 6.98222351 C-83.29372837 6.92388854 -75.17548858 6.85158558 -67.05724335 6.76428509 C-62.88535052 6.71989621 -58.71354832 6.68057465 -54.54150391 6.65356445 C-50.50179599 6.62721235 -46.46244301 6.58659603 -42.42295837 6.53681374 C-40.89554827 6.52035736 -39.36807708 6.50871299 -37.84059143 6.50238609 C-28.48901419 6.45980193 -19.7444272 5.65852802 -10.5826416 3.73591614 C-7.05571228 3.01144395 -3.56709526 2.47453943 0 2 C0 1.34 0 0.68 0 0 Z " fill="#2F90C4" transform="translate(144,374)"/>
<path d="M0 0 C0.33 0 0.66 0 1 0 C0.98952637 0.87100342 0.97905273 1.74200684 0.96826172 2.6394043 C0.93374662 5.93647011 0.90889414 9.23333816 0.89013672 12.53051758 C0.88020869 13.94526235 0.86666175 15.35998734 0.84912109 16.7746582 C0.49981439 34.16935895 0.49981439 34.16935895 5.875 50.4375 C6.41125 51.42105469 6.9475 52.40460938 7.5 53.41796875 C7.995 54.27003906 8.49 55.12210937 9 56 C9.61875 57.0725 10.2375 58.145 10.875 59.25 C13.91094061 63.17886432 17.41620318 66.57277683 21 70 C18 70 18 70 15.58984375 67.953125 C14.27693359 66.61507812 14.27693359 66.61507812 12.9375 65.25 C12.05964844 64.36828125 11.18179687 63.4865625 10.27734375 62.578125 C7.36608615 59.28236168 6 57.41381379 6 53 C5.34 53 4.68 53 4 53 C-0.80034594 42.7447155 -1.29645323 33.09792833 -1.20581055 21.95947266 C-1.18737914 19.60959174 -1.18530255 17.26010246 -1.18554688 14.91015625 C-1.18063674 13.41145492 -1.17481064 11.91275625 -1.16796875 10.4140625 C-1.16685593 9.71407135 -1.1657431 9.0140802 -1.16459656 8.2928772 C-1.13484398 5.25492091 -0.96867416 2.90602248 0 0 Z " fill="#BBDBE9" transform="translate(355,262)"/>
<path d="M0 0 C1.75547419 0.00560624 3.51095312 0.00987147 5.26643372 0.01286316 C9.85150472 0.02423109 14.43628345 0.05362741 19.02124023 0.0869751 C23.71398975 0.11785113 28.40678722 0.1314057 33.09960938 0.14648438 C42.2813773 0.17850609 51.46292982 0.2296031 60.64453125 0.29296875 C60.64453125 0.62296875 60.64453125 0.95296875 60.64453125 1.29296875 C35.23453125 1.29296875 9.82453125 1.29296875 -16.35546875 1.29296875 C-16.35546875 1.95296875 -16.35546875 2.61296875 -16.35546875 3.29296875 C-19.32546875 3.29296875 -22.29546875 3.29296875 -25.35546875 3.29296875 C-25.35546875 3.95296875 -25.35546875 4.61296875 -25.35546875 5.29296875 C-27.66546875 5.62296875 -29.97546875 5.95296875 -32.35546875 6.29296875 C-25.0081166 -2.13841442 -10.14543591 -0.09591752 0 0 Z " fill="#519FCD" transform="translate(407.35546875,219.70703125)"/>
<path d="M0 0 C0.33 0 0.66 0 1 0 C0.99476318 0.81452637 0.98952637 1.62905273 0.98413086 2.46826172 C0.8203118 21.64767184 0.8203118 21.64767184 1.4375 40.8125 C1.47673584 41.5451709 1.51597168 42.2778418 1.55639648 43.03271484 C1.51996247 46.30230206 1.51996247 46.30230206 3 49 C3.04080783 50.99958364 3.04254356 53.00045254 3 55 C-2.60675809 46.58986287 -2.19358388 35.13354953 -2.1875 25.375 C-2.1884668 23.78171875 -2.1884668 23.78171875 -2.18945312 22.15625 C-2.13860151 14.59322795 -1.62038593 7.40747854 0 0 Z " fill="#3691C7" transform="translate(357,256)"/>
<path d="M0 0 C2.0625 0.4375 2.0625 0.4375 4 1 C-1.17715844 6.17715844 -10.26542288 5.21618442 -17.14104366 5.23228264 C-19.52248666 5.22642608 -21.90375973 5.21104719 -24.28515625 5.1953125 C-25.95380991 5.19157642 -27.62246579 5.18873226 -29.29112244 5.18673706 C-33.65585523 5.1791474 -38.02045222 5.15953968 -42.38513184 5.1373291 C-46.84983484 5.11676944 -51.31456005 5.10771382 -55.77929688 5.09765625 C-64.51959316 5.07628882 -73.25977962 5.04221011 -82 5 C-82 4.67 -82 4.34 -82 4 C-81.13271271 3.99191315 -80.26542542 3.98382629 -79.37185669 3.97549438 C-71.16324046 3.89726849 -62.95478203 3.80989529 -54.74637032 3.71247292 C-50.52723547 3.66271427 -46.30812322 3.61638396 -42.08886719 3.578125 C-38.01035276 3.54101215 -33.93203732 3.49458504 -29.85369492 3.44193649 C-28.30456947 3.42352964 -26.75540159 3.4083722 -25.20621109 3.39665604 C-11.73130776 4.22934292 -11.73130776 4.22934292 0 0 Z " fill="#79B5D6" transform="translate(132,336)"/>
<path d="M0 0 C0.33 0 0.66 0 1 0 C2.82256821 6.21442939 3.28170674 11.77379967 3.23046875 18.23046875 C3.23001053 19.18391678 3.22955231 20.13736481 3.2290802 21.1197052 C3.22607554 23.12237808 3.21824327 25.125049 3.20581055 27.12768555 C3.18749268 30.18872365 3.18530162 33.24945951 3.18554688 36.31054688 C3.18063298 38.26302344 3.17480523 40.21549797 3.16796875 42.16796875 C3.16685593 43.07951218 3.1657431 43.9910556 3.16459656 44.93022156 C3.13363642 49.0779754 3.04979511 52.95632537 2 57 C1.67 57 1.34 57 1 57 C1.00523682 55.8447583 1.01047363 54.6895166 1.01586914 53.49926758 C1.0340015 49.20353982 1.04546212 44.90781542 1.05493164 40.61206055 C1.05995303 38.75463288 1.06677141 36.89720915 1.07543945 35.03979492 C1.08760117 32.36636379 1.09325033 29.69298504 1.09765625 27.01953125 C1.10281754 26.19226028 1.10797882 25.36498932 1.11329651 24.51264954 C1.11368299 20.51930483 0.91130875 16.90866019 0 13 C-0.06652855 10.73004581 -0.08543751 8.45831305 -0.0625 6.1875 C-0.05347656 5.02605469 -0.04445312 3.86460937 -0.03515625 2.66796875 C-0.02355469 1.78753906 -0.01195312 0.90710938 0 0 Z " fill="#A4CEE2" transform="translate(192,245)"/>
<path d="M0 0 C2 1 2 1 2.78125 2.75 C3.0184375 3.4925 3.255625 4.235 3.5 5 C3.7371875 5.721875 3.974375 6.44375 4.21875 7.1875 C4.4765625 8.115625 4.734375 9.04375 5 10 C5.35835937 11.26714844 5.71671875 12.53429687 6.0859375 13.83984375 C7.56993719 20.65634899 7.21187081 27.6267676 7.125 34.5625 C7.11494735 35.96679047 7.10582555 37.37108793 7.09765625 38.77539062 C7.07423093 42.18377485 7.04142746 45.591795 7 49 C6.67 49 6.34 49 6 49 C6 41.08 6 33.16 6 25 C5.34 25 4.68 25 4 25 C3.87882813 23.94941406 3.75765625 22.89882813 3.6328125 21.81640625 C2.75978794 14.43873394 1.8049811 7.2199244 0 0 Z " fill="#81BAD8" transform="translate(157,245)"/>
<path d="M0 0 C0.99 0.495 0.99 0.495 2 1 C3.65176778 24.83627963 3.65176778 24.83627963 2 34 C1.01 34.495 1.01 34.495 0 35 C0 23.45 0 11.9 0 0 Z " fill="#006EB9" transform="translate(197,259)"/>
<path d="M0 0 C2.475 0.495 2.475 0.495 5 1 C5 1.66 5 2.32 5 3 C5.9590625 3.1546875 5.9590625 3.1546875 6.9375 3.3125 C11.06477326 4.23903073 15.00642949 5.61660629 19 7 C19 7.66 19 8.32 19 9 C20.175625 9.12375 21.35125 9.2475 22.5625 9.375 C26.54120426 9.86435935 30.17766559 10.8055205 34 12 C34 12.33 34 12.66 34 13 C27.03757562 12.66845598 21.32325437 12.16162718 15 9 C13.67007579 8.53186668 12.33653465 8.0739124 11 7.625 C6.75551005 6.06647635 3.5387712 3.8015272 0 1 C0 0.67 0 0.34 0 0 Z " fill="#A8CFE2" transform="translate(357,367)"/>
<path d="M0 0 C0 0.66 0 1.32 0 2 C-7.42857143 6.28571429 -7.42857143 6.28571429 -11 8 C-11 8.66 -11 9.32 -11 10 C-11.969375 10.268125 -12.93875 10.53625 -13.9375 10.8125 C-14.948125 11.204375 -15.95875 11.59625 -17 12 C-17.33 12.99 -17.66 13.98 -18 15 C-19.32 14.67 -20.64 14.34 -22 14 C-21.37351562 13.62488281 -20.74703125 13.24976563 -20.1015625 12.86328125 C-19.28429687 12.35152344 -18.46703125 11.83976562 -17.625 11.3125 C-16.81289063 10.81363281 -16.00078125 10.31476562 -15.1640625 9.80078125 C-12.66982279 7.72524965 -11.94969305 6.06302098 -11 3 C-10.01 3 -9.02 3 -8 3 C-8 2.34 -8 1.68 -8 1 C-5.29120665 -0.35439668 -2.99066732 -0.06501451 0 0 Z " fill="#DA4944" transform="translate(436,38)"/>
<path d="M0 0 C2.5625 0.25 2.5625 0.25 5 1 C7.23167185 0.63143136 7.23167185 0.63143136 9 0 C9 0.66 9 1.32 9 2 C5.72099683 3.75946512 2.80202595 5.05192762 -0.8125 6 C-1.864375 6.33 -2.91625 6.66 -4 7 C-4.33 7.99 -4.66 8.98 -5 10 C-7.3125 10.25 -7.3125 10.25 -10 10 C-11.8125 8 -11.8125 8 -13 6 C-12.236875 6.20625 -11.47375 6.4125 -10.6875 6.625 C-7.78114056 7.33391203 -7.78114056 7.33391203 -5 5 C-4.21625 4.113125 -3.4325 3.22625 -2.625 2.3125 C-1.325625 1.1678125 -1.325625 1.1678125 0 0 Z " fill="#D7302B" transform="translate(266,148)"/>
<path d="M0 0 C1.32 0.33 2.64 0.66 4 1 C4 1.66 4 2.32 4 3 C4.8971875 3.433125 4.8971875 3.433125 5.8125 3.875 C8 5 8 5 11 7 C11 7.66 11 8.32 11 9 C11.66 9.495 12.32 9.99 13 10.5 C13.66 10.995 14.32 11.49 15 12 C15 12.66 15 13.32 15 14 C9.46126108 12.71192118 7.46595361 10.37804667 4 6 C1.85019503 4.62745412 1.85019503 4.62745412 0 4 C0 2.68 0 1.36 0 0 Z " fill="#D31612" transform="translate(52,14)"/>
<path d="M0 0 C1.24069037 3.72207112 0.24348018 5.36885467 -1.17578125 8.89453125 C-2.33989316 11.86825789 -3.13732306 14.92671338 -4 18 C-4.97402876 21.00888093 -5.98159091 24.00587729 -7 27 C-7.33 27 -7.66 27 -8 27 C-9.42625738 17.37842241 -5.30789168 10.26454039 -1 2 C-0.67 1.34 -0.34 0.68 0 0 Z " fill="#90C2DB" transform="translate(335,217)"/>
<path d="M0 0 C1.32 0 2.64 0 4 0 C2.47244446 4.21263763 -0.26959239 5.84918775 -3.9375 8.25 C-4.99839844 8.95640625 -6.05929687 9.6628125 -7.15234375 10.390625 C-10 12 -10 12 -13 12 C-13 11.34 -13 10.68 -13 10 C-12.34 10 -11.68 10 -11 10 C-11 9.34 -11 8.68 -11 8 C-9.1015625 6.4921875 -9.1015625 6.4921875 -6.625 4.875 C-5.81289063 4.33617187 -5.00078125 3.79734375 -4.1640625 3.2421875 C-2 2 -2 2 0 2 C0 1.34 0 0.68 0 0 Z " fill="#D41511" transform="translate(415,47)"/>
<path d="M0 0 C0.66 0.33 1.32 0.66 2 1 C0.625 2.5 0.625 2.5 -1 4 C-1.66 4 -2.32 4 -3 4 C-3 4.99 -3 5.98 -3 7 C-5.42712633 9.28843339 -7.50005604 10.80954516 -10.625 12 C-13.41439633 13.17448267 -14.40258514 14.47776601 -16 17 C-17.32 16.67 -18.64 16.34 -20 16 C-18.21326795 14.4941255 -16.42046492 12.9954515 -14.625 11.5 C-13.62726563 10.6646875 -12.62953125 9.829375 -11.6015625 8.96875 C-9 7 -9 7 -7 7 C-7 6.34 -7 5.68 -7 5 C-5.46875 3.7109375 -5.46875 3.7109375 -3.5 2.375 C-2.8503125 1.92898437 -2.200625 1.48296875 -1.53125 1.0234375 C-1.0259375 0.68570313 -0.520625 0.34796875 0 0 Z " fill="#65ACD0" transform="translate(401,117)"/>
<path d="M0 0 C0.99 0 1.98 0 3 0 C2.8984375 1.703125 2.8984375 1.703125 2 4 C-0.10229725 5.74901865 -2.10910552 7.25079826 -4.375 8.75 C-4.96539062 9.16121094 -5.55578125 9.57242187 -6.1640625 9.99609375 C-10.59507371 13 -10.59507371 13 -14 13 C-14 12.34 -14 11.68 -14 11 C-12.34928604 9.97388051 -10.68029994 8.97691857 -9 8 C-8.505 7.505 -8.01 7.01 -7.5 6.5 C-6 5 -6 5 -3.375 3.4375 C-0.88809625 2.22087094 -0.88809625 2.22087094 0 0 Z " fill="#D51610" transform="translate(460,16)"/>
<path d="M0 0 C0.33 0.66 0.66 1.32 1 2 C2.65 1.67 4.3 1.34 6 1 C3.96545738 3.18524948 2.14417064 4.91497629 -0.4375 6.4375 C-3.15714369 7.9362803 -3.15714369 7.9362803 -5.375 10.5625 C-8.60828339 13.56483458 -10.74984441 14.08329977 -15 15 C-10.48746518 10.2367688 -10.48746518 10.2367688 -7.8125 8.9375 C-5.47139069 7.72658139 -4.95928874 6.39822186 -4 4 C-3.01 4.33 -2.02 4.66 -1 5 C-0.67 3.35 -0.34 1.7 0 0 Z " fill="#DA4F4A" transform="translate(329,106)"/>
<path d="M0 0 C1.46015291 0.28241641 2.91809793 0.57626614 4.375 0.875 C5.18710938 1.03742188 5.99921875 1.19984375 6.8359375 1.3671875 C9 2 9 2 11 4 C11.99 4 12.98 4 14 4 C17 8.22222222 17 8.22222222 17 11 C17.99 11.33 18.98 11.66 20 12 C18.3125 12.8125 18.3125 12.8125 16 13 C14.84501356 11.87898375 13.70172609 10.74243063 12.6328125 9.5390625 C9.83437618 6.90130195 6.44788705 5.20377099 3.109375 3.33203125 C1 2 1 2 0 0 Z " fill="#DC625E" transform="translate(166,96)"/>
<path d="M0 0 C4.28239292 2.14119646 6.26167157 8.80465109 7.734375 13.18359375 C8.17367652 14.78438187 8.58935064 16.39162333 9 18 C9.33 18.33 9.66 18.66 10 19 C10.23427778 21.01594582 10.41336124 23.038474 10.5625 25.0625 C10.64628906 26.16722656 10.73007813 27.27195313 10.81640625 28.41015625 C10.87699219 29.26480469 10.93757812 30.11945313 11 31 C8.97649676 27.96474514 8.67875982 26.80573798 8.375 23.3125 C8.30023438 22.50425781 8.22546875 21.69601563 8.1484375 20.86328125 C8.09945312 20.24839844 8.05046875 19.63351563 8 19 C7.34 19 6.68 19 6 19 C5.73445312 18.13117188 5.46890625 17.26234375 5.1953125 16.3671875 C4.84210938 15.21476563 4.48890625 14.06234375 4.125 12.875 C3.77695313 11.73804688 3.42890625 10.60109375 3.0703125 9.4296875 C2.08503467 6.27248336 1.05727464 3.13372394 0 0 Z " fill="#87BDD9" transform="translate(181,214)"/>
<path d="M0 0 C0.66 0.33 1.32 0.66 2 1 C-1.16700621 5.16235101 -3.00453373 7.25158681 -8 9 C-9.67423683 10.32381517 -11.34211215 11.65576661 -13 13 C-13.66 13 -14.32 13 -15 13 C-15.20625 13.61875 -15.4125 14.2375 -15.625 14.875 C-17.54775888 17.84653645 -19.66594527 18.13024659 -23 19 C-20.88606435 15.82909652 -20.20028339 15.6001417 -17 14 C-16.4225 13.4225 -15.845 12.845 -15.25 12.25 C-12.13294965 9.13294965 -8.69950581 6.4022765 -5 4 C-4.34 4 -3.68 4 -3 4 C-3 3.34 -3 2.68 -3 2 C-2.01 1.34 -1.02 0.68 0 0 Z " fill="#67ADD0" transform="translate(426,98)"/>
<path d="M0 0 C4 0 4 0 5.625 1.4375 C6.07875 1.953125 6.5325 2.46875 7 3 C7.66 3.33 8.32 3.66 9 4 C9 4.66 9 5.32 9 6 C9.99 6 10.98 6 12 6 C12 6.66 12 7.32 12 8 C14.475 8.99 14.475 8.99 17 10 C17 10.66 17 11.32 17 12 C12.32405704 11.50551253 9.30326291 9.36987849 5.6875 6.5625 C5.13771484 6.15451172 4.58792969 5.74652344 4.02148438 5.32617188 C2.63747812 4.27226401 1.31293431 3.14122679 0 2 C0 1.34 0 0.68 0 0 Z " fill="#D51812" transform="translate(131,69)"/>
<path d="M0 0 C0.33 0 0.66 0 1 0 C1.01981934 0.63389648 1.03963867 1.26779297 1.06005859 1.92089844 C0.1324611 19.88798732 0.1324611 19.88798732 5 36 C5.04080783 37.99958364 5.04254356 40.00045254 5 42 C-0.78206708 33.32689939 -0.13973106 21.57283401 -0.0625 11.5625 C-0.05798828 10.44939453 -0.05347656 9.33628906 -0.04882812 8.18945312 C-0.03711193 5.45957899 -0.02070699 2.72981826 0 0 Z " fill="#68ACD2" transform="translate(355,269)"/>
<path d="M0 0 C0.33 0.66 0.66 1.32 1 2 C0.19175781 2.59167969 -0.61648438 3.18335938 -1.44921875 3.79296875 C-2.52880822 4.59092618 -3.60822616 5.38911572 -4.6875 6.1875 C-5.74324219 6.96480469 -6.79898437 7.74210938 -7.88671875 8.54296875 C-11.04120434 10.92921769 -11.04120434 10.92921769 -13.71875 13.75 C-16.21539934 16.21244866 -17.56248076 16.70535549 -21 17 C-17.36858871 13.21217961 -13.56013788 9.97046363 -9.375 6.8125 C-8.80265625 6.37486328 -8.2303125 5.93722656 -7.640625 5.48632812 C-5.1364026 3.57904246 -2.62001199 1.74667466 0 0 Z " fill="#69AFD2" transform="translate(322,178)"/>
<path d="M0 0 C1.32 0.33 2.64 0.66 4 1 C3.43410156 1.27714844 2.86820313 1.55429687 2.28515625 1.83984375 C1.55167969 2.20207031 0.81820312 2.56429688 0.0625 2.9375 C-0.66839844 3.29714844 -1.39929688 3.65679687 -2.15234375 4.02734375 C-3.96249027 4.86371827 -3.96249027 4.86371827 -5 6 C-6.34015221 6.15582303 -7.68758903 6.25044142 -9.03515625 6.31640625 C-9.84404297 6.35830078 -10.65292969 6.40019531 -11.48632812 6.44335938 C-12.7615332 6.50233398 -12.7615332 6.50233398 -14.0625 6.5625 C-14.91650391 6.60568359 -15.77050781 6.64886719 -16.65039062 6.69335938 C-18.76672037 6.79976702 -20.88333813 6.90041731 -23 7 C-23 6.67 -23 6.34 -23 6 C-20.47952208 5.51890037 -17.9586463 5.04007397 -15.4375 4.5625 C-14.73302734 4.42779297 -14.02855469 4.29308594 -13.30273438 4.15429688 C-8.87972769 3.31861358 -4.46069791 2.60374755 0 2 C0 1.34 0 0.68 0 0 Z " fill="#6DB0D4" transform="translate(144,374)"/>
<path d="M0 0 C0.66 0.33 1.32 0.66 2 1 C0.54634731 2.17249353 -0.91307419 3.33783816 -2.375 4.5 C-3.59316406 5.47453125 -3.59316406 5.47453125 -4.8359375 6.46875 C-7 8 -7 8 -9 8 C-9 8.66 -9 9.32 -9 10 C-10.75 11.6875 -10.75 11.6875 -13 13 C-15.25 12.6875 -15.25 12.6875 -17 12 C-16.030625 11.4225 -15.06125 10.845 -14.0625 10.25 C-10.90530708 8.35207138 -10.90530708 8.35207138 -10.125 5.75 C-10.08375 5.1725 -10.0425 4.595 -10 4 C-8.906875 3.71125 -7.81375 3.4225 -6.6875 3.125 C-2.95986155 2.18106796 -2.95986155 2.18106796 0 0 Z " fill="#DB625E" transform="translate(453,25)"/>
<path d="M0 0 C2 1 2 1 2.8515625 2.99609375 C3.10679687 3.80175781 3.36203125 4.60742188 3.625 5.4375 C3.88539063 6.24058594 4.14578125 7.04367187 4.4140625 7.87109375 C5 10 5 10 5 12 C5.99 12.33 6.98 12.66 8 13 C9.38671875 15.50390625 9.38671875 15.50390625 10.6875 18.5625 C11.34298828 20.08037109 11.34298828 20.08037109 12.01171875 21.62890625 C12.33785156 22.41136719 12.66398437 23.19382812 13 24 C12.34 24.33 11.68 24.66 11 25 C10.63648438 24.20335937 10.63648438 24.20335937 10.265625 23.390625 C8.10284498 18.80136412 8.10284498 18.80136412 4.875 14.9375 C1.09696541 11.03353092 0.76193133 5.20653074 0 0 Z " fill="#83BCD9" transform="translate(332,331)"/>
<path d="M0 0 C0.66 0.33 1.32 0.66 2 1 C1.29875 1.515625 0.5975 2.03125 -0.125 2.5625 C-2.48455032 4.56298831 -4.06630579 6.28802669 -5.9375 8.6875 C-8.19395182 11.43040766 -8.78273768 11.93964935 -12.375 12.9375 C-13.24125 12.958125 -14.1075 12.97875 -15 13 C-10.43369266 8.12927217 -5.25023461 4.10843602 0 0 Z " fill="#58A6CE" transform="translate(379,134)"/>
<path d="M0 0 C2.21766722 2.06516289 3.70714158 4.05278266 5.1875 6.6875 C8.09731286 11.4985096 11.91012503 15.1841365 16 19 C11.8700584 19 10.91572452 17.41314138 8 14.5625 C3.43327966 9.89592426 1.42816375 6.32472516 0 0 Z " fill="#96C5DC" transform="translate(360,313)"/>
<path d="M0 0 C2.92879371 0.62759865 5.36095629 1.58622659 8 3 C8 3.66 8 4.32 8 5 C8.639375 5.28875 9.27875 5.5775 9.9375 5.875 C12 7 12 7 13 9 C8.56903487 7.8705383 4.66476754 6.8024693 1 4 C0.1875 1.8125 0.1875 1.8125 0 0 Z " fill="#D3130E" transform="translate(218,128)"/>
<path d="M0 0 C-1.1995145 3.59854349 -2.27925223 4.18616815 -5.375 6.25 C-6.16648437 6.79140625 -6.95796875 7.3328125 -7.7734375 7.890625 C-10 9 -10 9 -13 8 C-12.67 7.34 -12.34 6.68 -12 6 C-11.34 6 -10.68 6 -10 6 C-10 5.34 -10 4.68 -10 4 C-3.375 0 -3.375 0 0 0 Z " fill="#D3140F" transform="translate(324,112)"/>
<path d="M0 0 C0 0.33 0 0.66 0 1 C-1.98 1 -3.96 1 -6 1 C-6 1.66 -6 2.32 -6 3 C-8.97 3 -11.94 3 -15 3 C-15 3.66 -15 4.32 -15 5 C-17.31 5.33 -19.62 5.66 -22 6 C-16.89216081 -0.05813485 -7.40828679 -0.41933699 0 0 Z " fill="#6CAED3" transform="translate(397,220)"/>
<path d="M0 0 C3.20667173 -0.21863671 5.37240778 -0.33122923 8.25 1.1875 C10.29372924 3.30421957 11.09840696 5.22008814 12 8 C8 8 8 8 5.4375 5.6875 C4.633125 4.800625 3.82875 3.91375 3 3 C2.401875 2.401875 1.80375 1.80375 1.1875 1.1875 C0.795625 0.795625 0.40375 0.40375 0 0 Z " fill="#DC5A55" transform="translate(67,28)"/>
<path d="M0 0 C2.0625 0.4375 2.0625 0.4375 4 1 C0.4664584 4.5335416 -4.72845244 4.89052783 -9.59375 5.125 C-11.72957313 5.125 -13.86525231 5.06776977 -16 5 C-16 4.67 -16 4.34 -16 4 C-14.92878906 3.79503906 -13.85757813 3.59007812 -12.75390625 3.37890625 C-11.35673149 3.10697291 -9.95959819 2.83482648 -8.5625 2.5625 C-7.85544922 2.42779297 -7.14839844 2.29308594 -6.41992188 2.15429688 C-2.91570736 1.71593102 -2.91570736 1.71593102 0 0 Z " fill="#98C6DE" transform="translate(132,336)"/>
<path d="M0 0 C-1.32332319 3.96996957 -4.0089399 5.76036395 -7.24609375 8.14453125 C-9 9 -9 9 -12 8 C-10.66666667 6.66666667 -9.33333333 5.33333333 -8 4 C-7.34 3.2575 -6.68 2.515 -6 1.75 C-4 0 -4 0 0 0 Z " fill="#D4130E" transform="translate(392,65)"/>
<path d="M0 0 C1.32 0 2.64 0 4 0 C3.875 1.75 3.875 1.75 3 4 C0.00254723 6.45246136 -1.97875396 7.911196 -5.875 8.25 C-6.57625 8.1675 -7.2775 8.085 -8 8 C-7.236875 7.4225 -6.47375 6.845 -5.6875 6.25 C-2.98314148 4.18674057 -2.98314148 4.18674057 -1.4375 1.75 C-0.963125 1.1725 -0.48875 0.595 0 0 Z " fill="#D4140F" transform="translate(439,30)"/>
<path d="M0 0 C0 0.33 0 0.66 0 1 C-2.52047792 1.48109963 -5.0413537 1.95992603 -7.5625 2.4375 C-8.61920898 2.63956055 -8.61920898 2.63956055 -9.69726562 2.84570312 C-14.12027231 3.68138642 -18.53930209 4.39625245 -23 5 C-16.91656917 -1.28621186 -8.16239999 -0.15115556 0 0 Z " fill="#85BDDB" transform="translate(394,180)"/>
<path d="M0 0 C1.32 0.33 2.64 0.66 4 1 C3.01 1 2.02 1 1 1 C1 1.66 1 2.32 1 3 C-1.046875 4.4375 -1.046875 4.4375 -3.75 6 C-4.63171875 6.515625 -5.5134375 7.03125 -6.421875 7.5625 C-8.5901988 8.77150479 -10.76767294 9.91513077 -13 11 C-13 10.34 -13 9.68 -13 9 C-11.5390625 7.7109375 -11.5390625 7.7109375 -9.625 6.375 C-8.68527344 5.70597656 -8.68527344 5.70597656 -7.7265625 5.0234375 C-6 4 -6 4 -4 4 C-4 3.34 -4 2.68 -4 2 C-2.68 2 -1.36 2 0 2 C0 1.34 0 0.68 0 0 Z " fill="#80B9D6" transform="translate(365,185)"/>
<path d="M0 0 C4 5.11111111 4 5.11111111 4 8 C3.34 8 2.68 8 2 8 C1.67 7.34 1.34 6.68 1 6 C0.195625 5.690625 -0.60875 5.38125 -1.4375 5.0625 C-4 4 -4 4 -6 1 C-4 0 -4 0 0 0 Z " fill="#D8413D" transform="translate(85,35)"/>
<path d="M0 0 C0.99 0.495 0.99 0.495 2 1 C1.01 1.495 1.01 1.495 0 2 C0 1.34 0 0.68 0 0 Z M-6 3 C-5.67 3.66 -5.34 4.32 -5 5 C-4.34 5.33 -3.68 5.66 -3 6 C-3.763125 6.20625 -4.52625 6.4125 -5.3125 6.625 C-8.82229103 8.42070704 -9.52599781 10.43136312 -11 14 C-11.66 13.67 -12.32 13.34 -13 13 C-8.85714286 5.42857143 -8.85714286 5.42857143 -6 3 Z M-3 3 C-2.01 3.495 -2.01 3.495 -1 4 C-1.99 4.495 -1.99 4.495 -3 5 C-3 4.34 -3 3.68 -3 3 Z " fill="#1E85C3" transform="translate(377,227)"/>
<path d="M0 0 C0.66 0.33 1.32 0.66 2 1 C-0.03631594 4.60271282 -1.22782934 6.65331113 -5.0625 8.375 C-8 9 -8 9 -11 9 C-3.70159453 2.66514806 -3.70159453 2.66514806 0 0 Z " fill="#5BA7D0" transform="translate(362,147)"/>
<path d="M0 0 C0.66 0 1.32 0 2 0 C3.5078125 1.96875 3.5078125 1.96875 5.125 4.5 C5.66382813 5.3353125 6.20265625 6.170625 6.7578125 7.03125 C7.16773438 7.6809375 7.57765625 8.330625 8 9 C5.0625 8.1875 5.0625 8.1875 2 7 C1.67 6.01 1.34 5.02 1 4 C-1.00016466 2.79117904 -1.00016466 2.79117904 -3 2 C-2.01 1.67 -1.02 1.34 0 1 C0 0.67 0 0.34 0 0 Z " fill="#D9423D" transform="translate(208,120)"/>
<path d="M0 0 C0 3.539747 -0.6751166 4.22806752 -2.8125 6.9375 C-3.59560547 7.94103516 -3.59560547 7.94103516 -4.39453125 8.96484375 C-4.92433594 9.63644531 -5.45414063 10.30804688 -6 11 C-6.49886719 11.74378906 -6.99773437 12.48757813 -7.51171875 13.25390625 C-8.00285156 13.83011719 -8.49398437 14.40632813 -9 15 C-9.99 15 -10.98 15 -12 15 C-12 14.34 -12 13.68 -12 13 C-10.64453125 11.73828125 -10.64453125 11.73828125 -8.8125 10.3125 C-5.09743288 7.25436548 -2.64419518 4.00635633 0 0 Z " fill="#7CB9D8" transform="translate(175,351)"/>
<path d="M0 0 C3.22430866 4.83646298 3.09242903 7.26939984 3 13 C3.99 13.33 4.98 13.66 6 14 C6 15.98 6 17.96 6 20 C2.89766736 15.34650105 1.72086796 12.5609814 1 7 C0.67 6.67 0.34 6.34 0 6 C-0.04080783 4.00041636 -0.04254356 1.99954746 0 0 Z " fill="#6EB0D3" transform="translate(325,309)"/>
<path d="M0 0 C0.66 0.33 1.32 0.66 2 1 C-1.96 4.96 -5.92 8.92 -10 13 C-10.66 12.67 -11.32 12.34 -12 12 C-10.75479583 10.55834372 -9.50362077 9.12184348 -8.25 7.6875 C-7.55390625 6.88699219 -6.8578125 6.08648437 -6.140625 5.26171875 C-4.20854665 3.22034399 -2.30056874 1.60107149 0 0 Z " fill="#ECF5F7" transform="translate(357,192)"/>
<path d="M0 0 C0.66 0.33 1.32 0.66 2 1 C-0.39452357 4.99087261 -2.69295516 5.59552886 -7 7 C-7.33 7.99 -7.66 8.98 -8 10 C-8.99 10 -9.98 10 -11 10 C-11 9.34 -11 8.68 -11 8 C-9.217871 6.55925285 -7.37339724 5.19489351 -5.5 3.875 C-4.4790625 3.15054688 -3.458125 2.42609375 -2.40625 1.6796875 C-1.6121875 1.12539062 -0.818125 0.57109375 0 0 Z " fill="#5EA9D0" transform="translate(349,157)"/>
<path d="M0 0 C6.45810245 0.99681713 12.76571832 2.01636492 19 4 C19 4.33 19 4.66 19 5 C12.05829437 4.66944259 6.20918975 4.24571282 0 1 C0 0.67 0 0.34 0 0 Z " fill="#84BBD7" transform="translate(372,375)"/>
<path d="M0 0 C0.66 0 1.32 0 2 0 C0 5 -2 10 -4 15 C-4.33 15 -4.66 15 -5 15 C-5 13.02 -5 11.04 -5 9 C-4.34 9 -3.68 9 -3 9 C-3 7.02 -3 5.04 -3 3 C-2.01 3 -1.02 3 0 3 C0 2.01 0 1.02 0 0 Z " fill="#2085BE" transform="translate(334,215)"/>
<path d="M0 0 C0.33 0 0.66 0 1 0 C1.33016357 4.73234457 0.66456842 7.10563077 -2 11 C-2.68096422 12.32608822 -3.35330586 13.65686601 -4 15 C-5 13 -5 13 -4.51171875 10.9765625 C-4.23972656 10.20054687 -3.96773438 9.42453125 -3.6875 8.625 C-3.42324219 7.85414063 -3.15898437 7.08328125 -2.88671875 6.2890625 C-2.04372178 4.11286769 -1.08064068 2.06690227 0 0 Z " fill="#3591C5" transform="translate(363,241)"/>
<path d="M0 0 C2.125 0.9375 2.125 0.9375 4 2 C3.360625 2.268125 2.72125 2.53625 2.0625 2.8125 C-0.33131686 3.88667752 -0.33131686 3.88667752 -1 7 C-3.9375 8.75 -3.9375 8.75 -7 10 C-7.66 9.67 -8.32 9.34 -9 9 C-8.030625 8.4225 -7.06125 7.845 -6.0625 7.25 C-2.89481512 5.37093214 -2.89481512 5.37093214 -2.25 2.8125 C-2.1675 2.214375 -2.085 1.61625 -2 1 C-1.34 0.67 -0.68 0.34 0 0 Z " fill="#DC5A56" transform="translate(379,73)"/>
<path d="M0 0 C0.66 0.33 1.32 0.66 2 1 C0.59921602 2.53547475 -0.82120903 4.05305148 -2.25 5.5625 C-3.43335938 6.83287109 -3.43335938 6.83287109 -4.640625 8.12890625 C-7 10 -7 10 -9.296875 9.77734375 C-10.13992188 9.39255859 -10.13992188 9.39255859 -11 9 C-8.6227567 6.37252056 -6.02316819 4.81390092 -3 3 C-1.24850835 1.41754725 -1.24850835 1.41754725 0 0 Z " fill="#6DADCE" transform="translate(490,49)"/>
<path d="M0 0 C0.886875 0.763125 1.77375 1.52625 2.6875 2.3125 C4.69973617 4.00525792 6.51486276 5.29747626 8.8125 6.625 C11 8 11 8 12 11 C6.80546349 9.58330822 3.33817117 6.07891809 0 2 C0 1.34 0 0.68 0 0 Z " fill="#77B6D5" transform="translate(345,356)"/>
<path d="M0 0 C0.99 0.33 1.98 0.66 3 1 C3.33 1.99 3.66 2.98 4 4 C4.99 4.9590625 4.99 4.9590625 6 5.9375 C8.05502754 8.05674715 8.59106845 9.13747914 9 12 C8.34 12 7.68 12 7 12 C7 11.01 7 10.02 7 9 C6.01 9 5.02 9 4 9 C3.3309224 7.68872739 2.66480194 6.3759455 2 5.0625 C1.62875 4.33160156 1.2575 3.60070312 0.875 2.84765625 C0 1 0 1 0 0 Z " fill="#94C4DC" transform="translate(172,202)"/>
<path d="M0 0 C0.7425 0.185625 1.485 0.37125 2.25 0.5625 C4.94990963 0.99203108 6.44631077 0.85122974 9 0 C9 0.66 9 1.32 9 2 C6.0173094 3.52448631 3.181798 4.93940067 0 6 C-1.125 2.25 -1.125 2.25 0 0 Z " fill="#DB544F" transform="translate(266,148)"/>
<path d="M0 0 C-2.5162178 2.60608273 -5.05134359 4.89381685 -8 7 C-8.66 6.67 -9.32 6.34 -10 6 C-9.34 5.34 -8.68 4.68 -8 4 C-7.835 3.319375 -7.67 2.63875 -7.5 1.9375 C-7.335 1.298125 -7.17 0.65875 -7 0 C-4.3333581 -1.33332095 -2.83319697 -0.67102033 0 0 Z " fill="#DD5952" transform="translate(310,124)"/>
<path d="M0 0 C0.33 0.99 0.66 1.98 1 3 C-3.5 7 -3.5 7 -8 7 C-8 5 -8 5 -6.8125 3.5 C-4.67984708 1.73504586 -2.59856524 0.91300941 0 0 Z " fill="#D5140E" transform="translate(361,85)"/>
<path d="M0 0 C3.48330216 0.64505596 6.09432866 1.98217268 9 4 C9 4.66 9 5.32 9 6 C5.21213403 5.4739075 2.82847776 4.61896089 0 2 C0 1.34 0 0.68 0 0 Z " fill="#D71811" transform="translate(116,59)"/>
<path d="M0 0 C1.32 0 2.64 0 4 0 C4 0.66 4 1.32 4 2 C4.66 2 5.32 2 6 2 C6.33 1.34 6.66 0.68 7 0 C7 0.66 7 1.32 7 2 C7.66 2 8.32 2 9 2 C9.33 3.65 9.66 5.3 10 7 C7.525 6.01 7.525 6.01 5 5 C5 4.34 5 3.68 5 3 C2.525 2.01 2.525 2.01 0 1 C0 0.67 0 0.34 0 0 Z " fill="#DC534D" transform="translate(89,43)"/>
<path d="M0 0 C1.2065625 0.0309375 1.2065625 0.0309375 2.4375 0.0625 C1.4475 1.5475 1.4475 1.5475 0.4375 3.0625 C-0.2225 3.0625 -0.8825 3.0625 -1.5625 3.0625 C-1.5625 4.0525 -1.5625 5.0425 -1.5625 6.0625 C-3.2125 6.3925 -4.8625 6.7225 -6.5625 7.0625 C-3.14390756 0.07668067 -3.14390756 0.07668067 0 0 Z " fill="#DA514C" transform="translate(467.5625,13.9375)"/>
<path d="M0 0 C1.32 0 2.64 0 4 0 C4.28875 0.763125 4.5775 1.52625 4.875 2.3125 C5.96269013 5.15029308 5.96269013 5.15029308 8 8 C5.33333333 6.66666667 2.66666667 5.33333333 0 4 C0 2.68 0 1.36 0 0 Z " fill="#D63C38" transform="translate(102,49)"/>
<path d="M0 0 C0.66 0.33 1.32 0.66 2 1 C0.32482761 4.53647504 -0.49280817 5.7911563 -4.1875 7.3125 C-5.5796875 7.6528125 -5.5796875 7.6528125 -7 8 C-6.02133662 6.85373678 -5.04205413 5.70800212 -4.0625 4.5625 C-3.51722656 3.92441406 -2.97195312 3.28632813 -2.41015625 2.62890625 C-1.63204305 1.73008851 -0.84063472 0.84063472 0 0 Z " fill="#9FCADE" transform="translate(148,326)"/>
<path d="M0 0 C3.54971796 0.60852308 6.76693609 1.38346804 10 3 C10.33 3.99 10.66 4.98 11 6 C6.95743617 4.77782954 3.50711041 3.37245704 0 1 C0 0.67 0 0.34 0 0 Z " fill="#D63733" transform="translate(224,135)"/>
<path d="M0 0 C0 0.66 0 1.32 0 2 C-3.50331713 5.40027839 -6.15833214 6.54961229 -11 7 C-4.36842105 0 -4.36842105 0 0 0 Z " fill="#E69C98" transform="translate(325,114)"/>
<path d="M0 0 C3.87132028 0.57352893 6.08172796 2.48704352 9 5 C8.67 5.66 8.34 6.32 8 7 C2.33846154 4.53846154 2.33846154 4.53846154 0.625 1.8125 C0.41875 1.214375 0.2125 0.61625 0 0 Z " fill="#D51510" transform="translate(200,116)"/>
<path d="M0 0 C4.10839064 1.45002023 7.50344613 3.3979134 11 6 C11 6.66 11 7.32 11 8 C9.35 7.67 7.7 7.34 6 7 C6 6.34 6 5.68 6 5 C5.38125 4.731875 4.7625 4.46375 4.125 4.1875 C2 3 2 3 0 0 Z " fill="#D5100A" transform="translate(61,21)"/>
<path d="M0 0 C0 3.34238213 -0.48151073 5.03533048 -2 8 C-4.625 10.3125 -4.625 10.3125 -7 12 C-6.1875 9.0625 -6.1875 9.0625 -5 6 C-4.01 5.67 -3.02 5.34 -2 5 C-1.33820153 3.01954441 -1.33820153 3.01954441 -1 1 C-0.67 0.67 -0.34 0.34 0 0 Z " fill="#89BEDA" transform="translate(157,314)"/>
<path d="M0 0 C0.66 0.33 1.32 0.66 2 1 C0.85981998 4.42054006 0.07541482 5.2426201 -3 7 C-4.32 6.67 -5.64 6.34 -7 6 C-4.69 4.02 -2.38 2.04 0 0 Z " fill="#59A5CC" transform="translate(299,195)"/>
<path d="M0 0 C-0.875 3.875 -0.875 3.875 -2 5 C-3.66617115 5.04063832 -5.33388095 5.042721 -7 5 C-5.64703851 0.94111554 -4.27479763 0 0 0 Z " fill="#D3140F" transform="translate(352,92)"/>
<path d="M0 0 C5.75 1.625 5.75 1.625 8 5 C4.7 4.34 1.4 3.68 -2 3 C-1.34 2.01 -0.68 1.02 0 0 Z " fill="#0977BA" transform="translate(221,201)"/>
<path d="M0 0 C1.32 0.33 2.64 0.66 4 1 C3 4 3 4 1.125 5.25 C-1 6 -1 6 -4 5 C-2.68 3.35 -1.36 1.7 0 0 Z " fill="#D31611" transform="translate(272,144)"/>
<path d="M0 0 C1.32 0 2.64 0 4 0 C3.3125 1.9375 3.3125 1.9375 2 4 C-0.625 4.75 -0.625 4.75 -3 5 C-1.125 1.125 -1.125 1.125 0 0 Z " fill="#D31410" transform="translate(299,126)"/>
<path d="M0 0 C2.97 0.495 2.97 0.495 6 1 C5.01 2.485 5.01 2.485 4 4 C0.875 4.1875 0.875 4.1875 -2 4 C-2 3.34 -2 2.68 -2 2 C-1.34 2 -0.68 2 0 2 C0 1.34 0 0.68 0 0 Z " fill="#D8302A" transform="translate(308,120)"/>
<path d="M0 0 C0.33 0.66 0.66 1.32 1 2 C1.66 2.33 2.32 2.66 3 3 C0.03 5.475 0.03 5.475 -3 8 C-3.66 7.67 -4.32 7.34 -5 7 C-3.70700306 4.11562221 -2.34058637 2.12780579 0 0 Z " fill="#DA4A45" transform="translate(340,99)"/>
<path d="M0 0 C2.94956528 1.36944102 5.52468811 2.87830409 8 5 C8 5.66 8 6.32 8 7 C5.0280615 5.87548273 2.66559313 4.77706209 0 3 C0 2.01 0 1.02 0 0 Z " fill="#0776B7" transform="translate(348,362)"/>
<path d="M0 0 C2.64 0 5.28 0 8 0 C8.33 1.65 8.66 3.3 9 5 C5.54074837 3.7508258 2.85306797 2.32472205 0 0 Z " fill="#539FCA" transform="translate(149,185)"/>
<path d="M0 0 C0.8971875 0.309375 0.8971875 0.309375 1.8125 0.625 C-0.8473561 4.06716672 -4.09038286 4.62004674 -8.1875 5.625 C-7.8575 4.965 -7.5275 4.305 -7.1875 3.625 C-6.5275 3.625 -5.8675 3.625 -5.1875 3.625 C-5.1875 2.965 -5.1875 2.305 -5.1875 1.625 C-2.1875 -0.375 -2.1875 -0.375 0 0 Z " fill="#137EBC" transform="translate(328.1875,176.375)"/>
<path d="M0 0 C1.32 0 2.64 0 4 0 C4 0.66 4 1.32 4 2 C5.32 2.66 6.64 3.32 8 4 C8 4.33 8 4.66 8 5 C6.35 5 4.7 5 3 5 C3 4.34 3 3.68 3 3 C2.01 2.67 1.02 2.34 0 2 C0 1.34 0 0.68 0 0 Z " fill="#D5140E" transform="translate(152,83)"/>
<path d="M0 0 C0.66 0.33 1.32 0.66 2 1 C0.02 3.31 -1.96 5.62 -4 8 C-5.32 7.67 -6.64 7.34 -8 7 C-5.36 4.69 -2.72 2.38 0 0 Z " fill="#74B2D2" transform="translate(457,74)"/>
<path d="M0 0 C4.04420651 1.77945087 7.46078487 4.39529673 11 7 C9 8 9 8 6.625 7.4375 C3.23776461 5.58258538 1.93012361 3.28835874 0 0 Z " fill="#E49692" transform="translate(132,72)"/>
<path d="M0 0 C0.66 0 1.32 0 2 0 C1.55005243 1.79379098 1.08975857 3.58498928 0.625 5.375 C0.36976563 6.37273437 0.11453125 7.37046875 -0.1484375 8.3984375 C-1 11 -1 11 -3 13 C-3 11.35 -3 9.7 -3 8 C-2.34 8 -1.68 8 -1 8 C-1.020625 6.865625 -1.04125 5.73125 -1.0625 4.5625 C-1 1 -1 1 0 0 Z " fill="#CCE3EC" transform="translate(187,322)"/>
<path d="M0 0 C0.99 0.33 1.98 0.66 3 1 C0.75 3.5625 0.75 3.5625 -2 6 C-4.3125 5.8125 -4.3125 5.8125 -6 5 C-1.60546875 0.99609375 -1.60546875 0.99609375 0 0 Z " fill="#0C7ABC" transform="translate(419,105)"/>
<path d="M0 0 C-1.36983503 3.16115776 -1.9890638 3.9927092 -5 6 C-5.99 6 -6.98 6 -8 6 C-8 5.34 -8 4.68 -8 4 C-2.58823529 0 -2.58823529 0 0 0 Z " fill="#D51510" transform="translate(338,102)"/>
<path d="M0 0 C0 0.66 0 1.32 0 2 C-0.969375 2.268125 -1.93875 2.53625 -2.9375 2.8125 C-3.948125 3.204375 -4.95875 3.59625 -6 4 C-6.33 4.99 -6.66 5.98 -7 7 C-8.32 6.67 -9.64 6.34 -11 6 C-9.54550599 4.9944239 -8.08627557 3.99569565 -6.625 3 C-5.40683594 2.1646875 -5.40683594 2.1646875 -4.1640625 1.3125 C-2 0 -2 0 0 0 Z " fill="#E59D99" transform="translate(425,46)"/>
<path d="M0 0 C1.45606519 4.52092968 0.27032841 7.51648796 -1 12 C-1.33 12 -1.66 12 -2 12 C-2.05395478 10.37536158 -2.09277195 8.75021459 -2.125 7.125 C-2.14820313 6.22007812 -2.17140625 5.31515625 -2.1953125 4.3828125 C-2 2 -2 2 0 0 Z " fill="#4297C8" transform="translate(326,240)"/>
<path d="M0 0 C-0.6875 1.9375 -0.6875 1.9375 -2 4 C-4.625 4.75 -4.625 4.75 -7 5 C-6.1875 3.0625 -6.1875 3.0625 -5 1 C-2 0 -2 0 0 0 Z " fill="#D31713" transform="translate(293,133)"/>
<path d="M0 0 C0.99 0 1.98 0 3 0 C4.38671875 1.53125 4.38671875 1.53125 5.6875 3.5 C6.12449219 4.1496875 6.56148438 4.799375 7.01171875 5.46875 C7.33785156 5.9740625 7.66398437 6.479375 8 7 C6.68 7 5.36 7 4 7 C2.02 3.535 2.02 3.535 0 0 Z " fill="#D7140D" transform="translate(85,36)"/>
<path d="M0 0 C3.33333333 1.66666667 6.66666667 3.33333333 10 5 C10 5.66 10 6.32 10 7 C5.04303419 5.76075855 2.88341534 4.21422242 0 0 Z " fill="#E0817D" transform="translate(57,21)"/>
<path d="M0 0 C0.33 0.99 0.66 1.98 1 3 C0.00390625 4.82421875 0.00390625 4.82421875 -1.4375 6.6875 C-1.91058594 7.31011719 -2.38367188 7.93273437 -2.87109375 8.57421875 C-3.24363281 9.04472656 -3.61617187 9.51523437 -4 10 C-4.66 9.67 -5.32 9.34 -6 9 C-4.02 6.03 -2.04 3.06 0 0 Z " fill="#3A92C3" transform="translate(179,347)"/>
<path d="M0 0 C3.68754757 0.49831724 5.60490662 1.10067643 8 4 C6.02 4 4.04 4 2 4 C1.34 2.68 0.68 1.36 0 0 Z " fill="#137CBB" transform="translate(374,329)"/>
<path d="M0 0 C2.475 0.495 2.475 0.495 5 1 C5 1.66 5 2.32 5 3 C5.99 3 6.98 3 8 3 C8.33 3.99 8.66 4.98 9 6 C5.06326356 4.68775452 2.77280706 3.08089673 0 0 Z " fill="#95C4DA" transform="translate(357,367)"/>
<path d="M0 0 C2 0 2 0 3.5 1.4375 C3.995 1.953125 4.49 2.46875 5 3 C5.66 3.33 6.32 3.66 7 4 C7 4.66 7 5.32 7 6 C4.625 5.8125 4.625 5.8125 2 5 C0.6875 2.4375 0.6875 2.4375 0 0 Z " fill="#D6150E" transform="translate(234,138)"/>
<path d="M0 0 C0.66 0.33 1.32 0.66 2 1 C0.29374499 3.78388975 -0.47626739 4.85384206 -3.6875 5.75 C-4.8321875 5.87375 -4.8321875 5.87375 -6 6 C-4 4 -2 2 0 0 Z " fill="#6AACCE" transform="translate(442,86)"/>
<path d="M0 0 C1.32 0 2.64 0 4 0 C3.34 1.32 2.68 2.64 2 4 C0.68 4 -0.64 4 -2 4 C-1.34 2.68 -0.68 1.36 0 0 Z " fill="#D51711" transform="translate(365,81)"/>
<path d="M0 0 C0 0.66 0 1.32 0 2 C-1.75 3.6875 -1.75 3.6875 -4 5 C-6.25 4.6875 -6.25 4.6875 -8 4 C-2.25 0 -2.25 0 0 0 Z " fill="#E7A29F" transform="translate(444,33)"/>
<path d="M0 0 C0.66 0 1.32 0 2 0 C1.67 1.32 1.34 2.64 1 4 C-0.65 4.33 -2.3 4.66 -4 5 C-2.71937515 3.2925002 -1.38232443 1.62626404 0 0 Z " fill="#0E7ABB" transform="translate(292,202)"/>
<path d="M0 0 C1.98 0 3.96 0 6 0 C6.33 1.32 6.66 2.64 7 4 C4.08482708 2.92598892 2.22189824 2.22189824 0 0 Z " fill="#D63B37" transform="translate(155,88)"/>
<path d="M0 0 C2.3125 0.1875 2.3125 0.1875 4 1 C1.3144406 3.6855594 -1.37621328 4.06049974 -5 5 C-2.75 2.4375 -2.75 2.4375 0 0 Z " fill="#2284BC" transform="translate(462,72)"/>
<path d="M0 0 C3.65316671 1.24976756 4.78065836 1.67098753 7 5 C4.625 4.75 4.625 4.75 2 4 C0.6875 1.9375 0.6875 1.9375 0 0 Z " fill="#D6120B" transform="translate(43,9)"/>
</svg>
